<?xml version="1.0" encoding="UTF-8" standalone="no"?>
<!--
  - Copyright (c) 2024 gematik GmbH
  - 
  - Licensed under the Apache License, Version 2.0 (the License);
  - you may not use this file except in compliance with the License.
  - You may obtain a copy of the License at
  - 
  -     http://www.apache.org/licenses/LICENSE-2.0
  - 
  - Unless required by applicable law or agreed to in writing, software
  - distributed under the License is distributed on an 'AS IS' BASIS,
  - WITHOUT WARRANTIES OR CONDITIONS OF ANY KIND, either express or implied.
  - See the License for the specific language governing permissions and
  - limitations under the License.
  -->

<svg
   width="129.78444"
   height="23.743235"
   viewBox="0 0 129.78444 23.743235"
   fill="none"
   version="1.1"
   id="svg65"
   xmlns="http://www.w3.org/2000/svg"
   xmlns:svg="http://www.w3.org/2000/svg">
  <defs
     id="defs69" />
  <path
     d="m 120.88893,10.77923 h -0.10051 V 0.26148127 h -2.66706 V 18.530803 h 2.66706 v -5.270899 h 0.0771 l 5.31047,5.270899 h 3.60848 l -6.63396,-6.629903 6.5837,-5.8971364 h -3.58503 z m -9.60591,7.751573 h 2.66705 V 6.0037636 h -2.66705 z M 112.6065,0 c -1.06884,0 -1.85622,0.86013724 -1.85622,1.9301468 0,1.0975409 0.78738,1.9060673 1.85622,1.9060673 1.06875,0 1.87958,-0.8085264 1.87958,-1.9060673 C 114.48608,0.86357803 113.67198,0 112.6065,0 Z m -9.22731,8.4843973 h 4.67732 V 6.0037636 h -4.67732 V 2.2466837 h -2.66696 V 13.913535 c 0,3.340871 1.62503,4.87874 4.37242,4.87874 1.55132,0 2.77083,-0.574586 3.7358,-1.252357 l -1.04203,-2.191599 c -0.73713,0.471303 -1.62493,0.860099 -2.46594,0.860099 -1.06884,0 -1.92993,-0.677771 -1.92993,-2.349888 V 8.4843973 Z M 91.766473,16.652218 c -2.006996,0 -2.667058,-0.836058 -2.667058,-1.644516 0,-0.808556 0.559549,-1.56547 2.388965,-1.747798 l 3.353831,-0.340617 v 3.289131 c -0.737128,0.261472 -1.882937,0.4438 -3.075738,0.4438 z M 92.021119,5.7422814 c -1.651836,0 -3.457707,0.364696 -5.1598,1.462227 l 0.991774,2.2191614 c 1.092288,-0.6537106 2.643513,-1.2523666 4.067513,-1.2523666 1.856127,0 2.921605,0.7294021 2.921605,2.4014598 v 0.20993 l -3.025482,0.313114 c -3.35383,0.340616 -5.387636,1.565371 -5.387636,3.887757 0,2.298345 1.551323,3.808711 5.464703,3.808711 1.98345,0 4.268539,-0.495442 5.615374,-1.228317 v -7.149384 c 0,-3.0793195 -2.006897,-4.6447703 -5.488051,-4.6722926 z m -13.36843,0 c -1.524513,0 -3.152904,0.4713526 -4.372415,1.2523566 -0.964965,-0.8360586 -2.338709,-1.2523566 -3.990447,-1.2523566 -2.033707,0 -4.218282,0.8360487 -5.36419,2.060883 V 18.530803 h 2.667058 l -0.02681,-9.2894911 c 0.964964,-0.7844369 1.98345,-0.9392626 2.971861,-0.9392626 1.678647,0 2.666959,1.0183968 2.666959,2.7937577 v 7.434996 h 2.667058 v -7.438459 c 0,-0.67777 -0.07707,-1.2798985 -0.227836,-1.8269427 0.763839,-0.5745763 1.829317,-0.9667948 2.921605,-0.9667948 1.601481,0 2.666958,0.8601383 2.666958,2.7937375 v 7.438459 h 2.667058 V 11.092344 C 83.912904,7.5416821 81.906007,5.7422814 78.652689,5.7422814 Z M 53.135341,11.0132 c 0.331713,-1.7477987 1.551224,-2.8969415 3.380641,-2.8969415 1.701994,0 2.794281,1.0183968 3.099184,2.8969415 z m 9.200404,1.04589 c 0,-3.8361749 -2.362056,-6.3168086 -5.769507,-6.3168086 -3.58503,0 -6.225179,2.5838475 -6.225179,6.4200916 0,4.149229 2.744025,6.629902 6.406122,6.629902 1.829318,0 3.507964,-0.471303 5.005569,-1.747799 l -1.320025,-2.167559 c -1.015221,1.070028 -2.311899,1.56547 -3.53141,1.56547 -1.77916,0 -3.608477,-0.91174 -3.836313,-3.368274 h 9.220487 c 0.02345,-0.309651 0.05026,-0.677771 0.05026,-1.015023 z M 47.238412,7.8031644 c -1.574671,-1.644585 -3.91332,-2.060883 -5.437794,-2.060883 -4.395842,0 -6.989118,2.6113699 -6.989118,6.5507776 0,3.75707 2.465963,6.237744 5.997373,6.237744 1.015201,0 1.57473,-0.495442 1.57473,-1.331501 0,-0.784417 -0.559529,-1.228317 -1.57473,-1.228317 -1.95668,0 -3.330384,-1.434685 -3.330384,-3.681388 0,-2.4255397 1.501017,-3.9944332 4.168006,-3.9944332 0.864431,0 2.110813,0.2339599 2.821111,0.9392724 l -0.0268,9.1346158 c 0,1.930226 -1.702053,2.817827 -3.812856,2.817827 -1.92988,0 -3.203071,-0.887601 -3.457708,-1.018387 -1.042001,-0.522944 -2.057198,-0.0275 -2.057198,0.990885 0,1.723758 3.048943,2.583857 5.541706,2.583857 3.70899,0 6.583662,-1.668655 6.583662,-5.377546 z"
     fill="#000c45"
     id="path63"
     style="fill:#000c45;fill-opacity:1;stroke-width:0.989301" />
  <path
     style="fill:#000c45;fill-opacity:1;stroke:#000000;stroke-width:3.34106;stroke-linecap:round;stroke-linejoin:round;stroke-miterlimit:4;stroke-dasharray:none;stroke-opacity:1"
     d="m 11.414256,7.3851079 13.72473,0.060515"
     id="path196" />
  <path
     style="fill:#000c45;fill-opacity:1;stroke:#dd0b1a;stroke-width:3.35506;stroke-linecap:round;stroke-linejoin:round;stroke-miterlimit:4;stroke-dasharray:none;stroke-opacity:1"
     d="m 4.649085,12.223739 20.482901,0.04089"
     id="path196-6" />
  <path
     style="fill:#000c45;fill-opacity:1;stroke:#fec40e;stroke-width:3.57344;stroke-linecap:round;stroke-linejoin:round;stroke-miterlimit:4;stroke-dasharray:none;stroke-opacity:1"
     d="m 1.78672,17.052557 23.236076,0.04089"
     id="path196-6-7" />
</svg>
