<?xml version="1.0" encoding="UTF-8" standalone="no"?>
<!--
  - ${GEMATIK_COPYRIGHT_STATEMENT}
  -->

<svg
   version="1.0"
   width="270.000000pt"
   height="276.000000pt"
   viewBox="0 0 270.000000 276.000000"
   preserveAspectRatio="xMidYMid meet"
   id="svg30"
   sodipodi:docname="tiger-mono-inkscape.svg"
   inkscape:version="1.1.2 (76b9e6a115, 2022-02-25)"
   inkscape:export-filename="/home/thomas/Downloads/tiger-500.png"
   inkscape:export-xdpi="143.28"
   inkscape:export-ydpi="143.28"
   xmlns:inkscape="http://www.inkscape.org/namespaces/inkscape"
   xmlns:sodipodi="http://sodipodi.sourceforge.net/DTD/sodipodi-0.dtd"
   xmlns="http://www.w3.org/2000/svg"
   xmlns:svg="http://www.w3.org/2000/svg"
   xmlns:rdf="http://www.w3.org/1999/02/22-rdf-syntax-ns#"
   xmlns:cc="http://creativecommons.org/ns#"
   xmlns:dc="http://purl.org/dc/elements/1.1/">
  <metadata
     id="metadata36">
    <rdf:RDF>
      <cc:Work
         rdf:about="">
        <dc:format>image/svg+xml</dc:format>
        <dc:type
           rdf:resource="http://purl.org/dc/dcmitype/StillImage" />
      </cc:Work>
    </rdf:RDF>
  </metadata>
  <defs
     id="defs34" />
  <sodipodi:namedview
     pagecolor="#ffffff"
     bordercolor="#666666"
     borderopacity="1"
     objecttolerance="10"
     gridtolerance="10"
     guidetolerance="10"
     inkscape:pageopacity="0"
     inkscape:pageshadow="2"
     inkscape:window-width="1920"
     inkscape:window-height="1026"
     id="namedview32"
     showgrid="false"
     inkscape:zoom="1.7563289"
     inkscape:cx="90.245054"
     inkscape:cy="225.18561"
     inkscape:window-x="0"
     inkscape:window-y="30"
     inkscape:window-maximized="1"
     inkscape:current-layer="svg30"
     inkscape:pagecheckerboard="0"
     inkscape:document-units="pt" />
  <path
     style="fill:#ffffff;stroke:#000000;stroke-width:0.75px;stroke-linecap:butt;stroke-linejoin:miter;stroke-opacity:1"
     d="m 79.93275,144.87067 13.903658,-2.95617 23.248262,-9.14698 -4.60033,9.43771 -1.89663,5.2225 -8.03047,-8.80658 -1.99692,4.14428 0.75404,8.96216 -1.00576,0.86541 -10.685595,-8.11287 2.354576,10.27802 c -1.431514,-0.10683 -1.553254,-3.51587 -3.58139,-0.83245 z"
     id="path895"
     sodipodi:nodetypes="ccccccccccccc" />
  <path
     style="fill:#ffffff;stroke:#000000;stroke-width:0.75px;stroke-linecap:butt;stroke-linejoin:miter;stroke-opacity:1"
     d="m 82.697078,176.64346 10.199024,-5.47581 10.415968,0.32214 20.31765,8.38938 -2.43656,-3.81618 -1.46036,-15.60018 -3.2834,-0.37488 -6.76912,11.59164 -6.0079,-2.50728 1.59124,-8.67695 -2.87108,-2.38229 -9.095428,10.68442 -2.629359,-7.70885 -4.853366,3.71629 -4.139957,7.39986 z"
     id="path897"
     sodipodi:nodetypes="cccccccccccccccc" />
  <g
     transform="matrix(0.10129962,0,0,-0.09880063,-0.11696615,272.81927)"
     fill="#000000"
     stroke="none"
     id="g28"
     style="fill:#010e52;fill-opacity:1">
    <path
       d="m 2480,1618 -66,61 c -65,61 -168,141 -254,197 l -45,30 -1,94 c -1,105 -16,153 -76,236 -33,46 -215,181 -227,168 -3,-3 -6,-36 -7,-72 -1,-108 -46,-172 -152,-214 -15,-6 -103,-14 -197,-18 -93,-5 -186,-14 -205,-21 -49,-17 -137,-74 -185,-118 -68,-64 -127,-100 -241,-147 -174,-72 -223,-109 -253,-188 -14,-35 0,-95 28,-120 10,-10 22,-34 26,-54 14,-82 89,-172 143,-172 10,0 40,-25 66,-55 74,-87 143,-110 96,-33 -11,18 -20,45 -20,60 0,26 1,26 50,-23 l 51,-51 -40,-43 -40,-44 -13,27 c -22,46 -41,38 -94,-40 -49,-73 -49,-73 -48,-153 1,-66 8,-97 39,-180 21,-55 46,-117 57,-138 20,-40 38,-43 31,-5 -2,13 5,38 17,56 36,59 96,66 216,27 89,-29 171,-32 216,-9 84,44 271,-25 318,-116 25,-49 67,-183 80,-255 6,-33 13,-70 16,-83 l 4,-22 c 8.2436,-40.94159 20.0001,-80.83166 20.0001,-80.83166 l 760.7935,-2.55491 -5.1792,1443.58117 c 0,0 1.8311,-4.5306 -65.6144,57.8054 z m -533,636 c 50,-52 113,-165 113,-204 0,-10 -11,-53 -24,-95 -23,-72 -23,-76 -7,-98 10,-12 23,-52 28,-88 11,-65 82,-261 109,-296 22,-31 27,-6 11,56 -12,47 -13,67 -4,90 10,27 8,33 -12,55 -25,26 -45,105 -31,119 11,12 114,-55 135,-86 25,-39 29,-90 11,-169 -17,-78 -48,-145 -75,-165 -14,-10 -12,-16 21,-50 50,-51 78,-116 78,-181 0,-55 -21,-122 -39,-122 -21,0 -11,-20 18,-34 39,-21 99,-107 133,-191 24,-63 27,-83 28,-193 V 480 l -51,56 c -83,92 -151,145 -163,126 -3,-5 11,-26 30,-48 49,-53 85,-118 95,-169 7,-40 5,-50 -27,-102 -19,-32 -50,-77 -70,-101 -34,-41 -38,-43 -82,-40 l -47,3 3,40 c 5,64 21,103 68,161 24,29 44,57 44,60 0,9 -18,22 -110,87 -41,29 -78,55 -83,58 -8,6 3,96 20,167 3,12 1,22 -6,22 -6,0 -34,-48 -63,-107 -28,-60 -53,-111 -55,-114 -2,-3 27,-29 64,-59 38,-30 72,-57 76,-60 4,-4 -1,-22 -12,-41 -23,-40 -61,-161 -61,-195 0,-21 -5,-24 -34,-24 -30,0 -34,4 -40,31 -13,68 0,171 27,207 5,7 7,15 3,19 -9,9 -104,-85 -123,-122 l -16,-30 -8,27 c -4,15 -13,68 -20,118 -10,80 -10,98 6,155 23,86 64,149 114,175 23,11 41,25 41,30 0,14 -12,13 -77,-12 -42,-15 -74,-37 -115,-80 -32,-32 -58,-65 -58,-73 0,-21 -8,-19 -46,15 -47,41 -103,68 -156,76 -71,10 -71,10 -43,51 22,33 33,73 20,73 -2,0 -24,-21 -47,-46 -46,-50 -122,-94 -163,-94 -13,0 -66,14 -117,31 -120,40 -187,38 -252,-8 -55,-39 -57,-36 -64,104 l -5,101 44,29 c 36,24 53,28 108,28 58,0 79,-6 168,-47 117,-55 162,-60 197,-24 23,22 24,28 21,167 -3,171 -18,218 -94,293 -76,75 -147,76 -265,5 -40,-24 -100,-49 -150,-61 l -82,-22 -37,23 c -35,22 -77,81 -91,128 -6,18 -2,22 22,28 35,7 112,70 112,92 0,12 -6,11 -34,-6 -21,-14 -50,-21 -81,-21 h -47 l 7,37 c 9,52 29,87 57,100 12,7 66,26 118,43 118,39 147,56 289,169 139,111 158,115 251,49 50,-35 69,-42 120,-46 39,-3 65,0 75,8 20,16 10,30 -21,30 -31,0 -73,21 -98,49 l -19,21 h 50 c 47,0 53,-3 95,-48 25,-27 57,-66 71,-88 31,-49 95,-110 125,-119 28,-8 28,6 1,31 -30,26 -59,92 -59,135 0,27 -8,43 -35,69 -41,40 -43,50 -11,50 13,0 51,14 85,32 53,27 65,39 88,86 15,30 29,79 31,108 4,51 5,53 26,42 11,-6 44,-35 73,-64 z m 471,-661 c 18,-22 23,-36 18,-62 -4,-29 -3,-32 14,-28 18,5 20,0 20,-41 -1,-41 -2,-45 -14,-29 -7,9 -18,17 -23,17 -8,0 -53,-174 -53,-202 0,-19 27,-5 47,24 l 22,32 10,-27 c 7,-19 7,-67 -1,-156 l -11,-129 -39,31 c -38,32 -38,32 -32,88 6,57 -15,145 -50,208 -12,22 -10,34 14,107 16,46 32,108 35,139 4,30 10,55 13,55 4,0 17,-12 30,-27 z M 1114,1381 c 8,-12 -18,-84 -32,-89 -7,-2 -12,3 -12,11 0,8 -3,28 -6,45 -5,24 -2,31 12,35 30,8 33,7 38,-2 z m 87,-36 c 79,-55 146,-170 134,-228 -10,-48 -43,-95 -77,-113 -38,-20 -44,-12 -52,65 -16,133 -28,141 -78,51 -18,-33 -40,-60 -49,-60 -26,0 -38,21 -32,56 3,18 2,41 -2,51 -5,10 -9,23 -9,28 -1,6 -7,27 -15,48 -12,36 -9,87 7,87 4,0 22,-27 40,-61 38,-69 58,-72 54,-9 -3,49 14,110 31,110 6,0 27,-11 48,-25 z m -213,-60 c -1,-54 -19,-59 -37,-10 -14,39 -9,55 19,55 15,0 18,-8 18,-45 z m -109,-16 c 10,-30 8,-49 -7,-49 -11,0 -39,54 -34,68 7,23 30,12 41,-19 z m 146,-140 c 4,-5 4,-21 1,-35 -5,-17 -13,-24 -31,-24 -29,0 -32,16 -9,48 17,24 29,28 39,11 z m 153,-67 c 2,-39 -1,-62 -8,-62 -5,0 -10,4 -10,8 0,5 -11,14 -24,22 l -24,13 21,43 c 12,25 26,43 32,41 5,-2 11,-31 13,-65 z m -274,31 c 9,-22 -36,-68 -58,-60 -14,6 -13,11 5,42 23,38 43,45 53,18 z"
       id="path2"
       sodipodi:nodetypes="scccccccccccccccsccsscccccccccccccccccccscsccccccccccccssccccccccccccccscccscscccssccsccccccsccscccssssccccscccsccccccscscccccccssccsccccscsccccccccccssccccccccccscccsccccccccsccccsccscccsccsccccscccssccccccccc"
       style="fill:#010e52;fill-opacity:1" />
    <path
       d="m 1889,2238 c 0,-2 -2,-18 -5,-37 -5,-43 -41,-103 -95,-160 -47,-50 -45,-79 5,-73 25,3 27,2 17,-17 -16,-30 -14,-35 24,-55 35,-19 36,-19 50,0 32,42 58,129 59,199 1,77 -18,145 -40,145 -8,0 -14,-1 -15,-2 z"
       id="path4"
       style="fill:#010e52;fill-opacity:1" />
    <path
       d="m 1735,1901 c -14,-24 52,-91 127,-126 32,-16 36,-23 42,-65 13,-100 117,-269 187,-306 43,-22 44,-17 7,29 -75,90 -122,230 -116,341 l 3,61 -66,7 c -65,8 -115,25 -156,54 -14,10 -23,12 -28,5 z"
       id="path6"
       style="fill:#010e52;fill-opacity:1" />
    <path
       d="m 1190,1893 c -46,-19 -161,-108 -149,-116 2,-1 65,0 139,3 111,5 144,10 185,29 28,12 68,26 89,29 72,13 52,28 -56,42 -136,17 -190,21 -208,13 z m 115,-39 50,-7 -30,-13 c -32,-14 -155,-19 -155,-6 0,12 54,42 70,37 8,-2 38,-7 65,-11 z"
       id="path8"
       style="fill:#010e52;fill-opacity:1" />
    <path
       d="m 1495,1796 c -53,-41 -108,-56 -205,-56 -95,0 -119,-13 -47,-26 75,-13 153,-6 218,20 45,18 67,22 80,15 33,-17 139,-2 139,21 0,4 -26,14 -57,23 -32,8 -67,18 -78,21 -13,3 -31,-3 -50,-18 z"
       id="path10"
       style="fill:#010e52;fill-opacity:1" />
    <path
       d="m 941,1756 c -28,-30 -23,-40 40,-72 41,-20 62,-24 116,-22 75,3 95,22 36,32 -53,10 -142,52 -149,71 -8,21 -17,19 -43,-9 z"
       id="path12"
       style="fill:#010e52;fill-opacity:1" />
    <path
       d="m 1700,1704 c 0,-3 14,-17 32,-32 47,-40 103,-132 144,-240 20,-54 46,-114 56,-134 21,-43 16,-45 -47,-23 -22,8 -41,15 -42,15 -4,0 62,-162 83,-204 14,-26 24,-49 22,-51 -2,-2 -36,-8 -75,-14 -145,-22 -237,-73 -298,-163 -19,-29 -35,-56 -35,-60 0,-16 19,-7 50,22 18,16 62,44 99,62 60,29 75,32 161,33 126,0 160,-8 219,-55 27,-21 51,-37 54,-34 4,5 -4,40 -33,136 -14,47 -55,136 -76,165 -16,23 -16,23 17,17 19,-4 62,-18 97,-31 35,-14 66,-23 68,-20 3,3 -18,34 -46,69 -51,62 -93,125 -198,290 -63,99 -151,201 -203,234 -40,25 -49,28 -49,18 z"
       id="path14"
       style="fill:#010e52;fill-opacity:1" />
    <path
       d="m 929,1634 c -7,-9 -48,-43 -91,-76 -43,-33 -78,-64 -78,-69 0,-5 8,-18 17,-29 20,-23 42,-19 117,19 97,50 156,94 144,107 -3,2 -55,-21 -117,-52 -63,-30 -115,-53 -118,-51 -2,3 17,22 43,43 69,56 114,100 114,113 0,16 -15,13 -31,-5 z"
       id="path16"
       style="fill:#010e52;fill-opacity:1" />
    <path
       d="m 1210,1638 c 1,-43 104,-176 170,-219 l 47,-30 -5,-52 c -3,-42 1,-61 22,-100 29,-53 30,-42 -20,-192 -25,-73 -14,-81 19,-16 18,35 55,88 84,117 l 52,53 -36,22 c -63,39 -82,123 -37,170 l 26,27 -39,12 c -100,33 -209,113 -244,181 -19,38 -39,52 -39,27 z"
       id="path18"
       style="fill:#010e52;fill-opacity:1" />
    <path
       d="m 1340,1636 c 0,-8 22,-39 49,-68 51,-56 140,-108 184,-108 25,0 25,0 10,-41 -22,-66 -3,-126 65,-201 20,-23 33,-43 27,-45 -70,-24 -235,-216 -235,-274 0,-6 20,7 45,30 76,70 219,157 328,200 15,6 27,14 27,19 0,4 -29,29 -64,55 -82,60 -122,106 -137,157 -11,36 -10,47 8,91 12,27 18,51 15,53 -4,2 -25,7 -47,11 -86,14 -198,68 -240,116 -21,23 -35,25 -35,5 z"
       id="path20"
       style="fill:#010e52;fill-opacity:1" />
    <path
       d="m 1485,1641 c -3,-6 2,-11 13,-11 47,0 179,-73 206,-115 12,-19 13,-34 5,-85 -5,-35 -8,-65 -5,-67 8,-8 76,118 76,141 0,30 -58,82 -124,111 -60,26 -161,41 -171,26 z"
       id="path22"
       style="fill:#010e52;fill-opacity:1" />
    <path
       d="m 1010,1490 c -30,-16 -92,-39 -138,-51 -48,-13 -81,-27 -79,-33 6,-15 93,-10 144,8 55,19 143,77 143,93 0,18 -7,16 -70,-17 z"
       id="path24"
       style="fill:#010e52;fill-opacity:1" />
    <path
       d="m 2110,1046 c 0,-8 16,-24 35,-36 46,-29 72,-67 106,-157 43,-115 119,-213 155,-199 15,6 14,10 -10,35 -15,15 -40,63 -56,106 -36,95 -67,142 -144,211 -60,54 -86,66 -86,40 z"
       id="path26"
       style="fill:#010e52;fill-opacity:1" />
  </g>
</svg>
