

<svg viewBox="0 0 512 512" fill="none" xmlns="http://www.w3.org/2000/svg">
<g clip-path="url(#clip0_24_2)">
<path d="M196.487 458.003C196.44 458.023 196.394 458.044 196.348 458.065C192.462 459.822 187.89 459.122 184.685 456.223L184.648 456.19L24.6483 312.19L24.6229 312.168C22.2993 310.083 21.0001 307.183 21.0001 304C21.0001 300.967 22.2905 297.972 24.7047 295.758C24.7157 295.748 24.7267 295.738 24.7378 295.728L184.593 151.858C184.6 151.852 184.607 151.846 184.614 151.84C187.829 148.981 192.433 148.214 196.548 150.024C200.436 151.733 203 155.633 203 160V224C203 235.598 212.402 245 224 245H320C384.598 245 437 192.598 437 128C437 91.3616 421.493 68.7214 408.78 56.4681C432.95 71.6082 491 117.293 491 208C491 293.602 421.602 363 336 363H224C212.402 363 203 372.402 203 384V448C203 452.279 200.409 456.263 196.487 458.003ZM404.991 51.5565C404.991 51.5563 404.992 51.5609 404.994 51.5704C404.992 51.5614 404.991 51.5568 404.991 51.5565Z" stroke="currentColor" stroke-width="42" stroke-linejoin="round"/>
</g>
<defs>
<clipPath id="clip0_24_2">
<rect width="512" height="512" transform="matrix(-1 0 0 -1 512 512)"/>
</clipPath>
</defs>
</svg>
