

<svg width="60" height="60" viewBox="0 0 60 60" fill="none" xmlns="http://www.w3.org/2000/svg">
<g clip-path="url(#clip0_8_2)">
<rect width="60" height="60" fill="#010E52"/>
<path d="M20.0587 34.838L23.1484 34.1954L28.3146 32.2069L27.2924 34.2586L26.8709 35.3939L25.0863 33.4794L24.6426 34.3803L24.8101 36.3286L24.5866 36.5168L22.2121 34.7531L22.7353 36.9875C22.4172 36.9642 22.3901 36.2231 21.9394 36.8065L20.0587 34.838Z" fill="#010E52"/>
<path d="M20.673 41.7451L22.9394 40.5547L25.2541 40.6248L29.7691 42.4485L29.2276 41.6189L28.9031 38.2276L28.1735 38.1461L26.6692 40.666L25.3341 40.121L25.6877 38.2347L25.0497 37.7168L23.0285 40.0395L22.4442 38.3636L21.3657 39.1715L20.4457 40.7802L20.673 41.7451Z" fill="#010E52"/>
<path d="M58.0972 27.9009L56.6115 26.5907C55.1482 25.2805 52.8296 23.5622 50.8937 22.3594L49.8807 21.7151L49.8582 19.6961C49.8356 17.4409 49.498 16.4099 48.1473 14.6272C47.4045 13.6392 43.3074 10.7396 43.0373 11.0189C42.9698 11.0833 42.9022 11.7921 42.8797 12.5653C42.8572 14.885 41.8442 16.2596 39.4581 17.1617C39.1204 17.2905 37.1394 17.4624 35.0234 17.5483C32.9299 17.6557 30.8363 17.849 30.4086 17.9993C29.3056 18.3645 27.3246 19.5887 26.2441 20.5338C24.7133 21.9084 23.3852 22.6816 20.8189 23.6911C16.902 25.2375 15.799 26.0322 15.1236 27.729C14.8085 28.4808 15.1236 29.7695 15.7539 30.3064C15.9791 30.5212 16.2492 31.0367 16.3392 31.4663C16.6544 33.2275 18.3427 35.1606 19.5583 35.1606C19.7834 35.1606 20.4588 35.6975 21.044 36.3419C22.7099 38.2105 24.2631 38.7045 23.2051 37.0507C22.9575 36.6641 22.7549 36.0841 22.7549 35.762C22.7549 35.2035 22.7774 35.2035 23.8804 36.256L25.0285 37.3514L24.128 38.2749L23.2276 39.22L22.935 38.6401C22.4397 37.6521 22.012 37.8239 20.8189 39.4992C19.7159 41.0671 19.7159 41.0671 19.7384 42.7854C19.7609 44.203 19.9185 44.8688 20.6163 46.6515C21.0891 47.8328 21.6518 49.1645 21.8995 49.6155C22.3497 50.4747 22.7549 50.5391 22.5973 49.7229C22.5523 49.4437 22.7099 48.9067 22.98 48.5201C23.7904 47.2529 25.141 47.1026 27.8424 47.9402C29.8458 48.5631 31.6918 48.6275 32.7048 48.1335C34.5957 47.1885 38.8052 48.6705 39.8633 50.625C40.426 51.6775 41.3715 54.5556 41.6641 56.102C41.7992 56.8108 41.9568 57.6055 42.0243 57.8847L42.1144 58.3572C42.2999 59.2366 42.5 60 42.5 60H60V29.5C60 29.5 59.6155 29.2397 58.0972 27.9009ZM46.0988 14.2406C47.2244 15.3575 48.6426 17.7845 48.6426 18.6222C48.6426 18.837 48.3949 19.7606 48.1023 20.6626C47.5845 22.2091 47.5845 22.295 47.9447 22.7675C48.1698 23.0253 48.4625 23.8844 48.575 24.6576C48.8226 26.0537 50.4209 30.2635 51.0287 31.0152C51.524 31.6811 51.6365 31.1441 51.2763 29.8124C51.0062 28.803 50.9837 28.3734 51.1863 27.8794C51.4114 27.2995 51.3664 27.1706 50.9162 26.6981C50.3534 26.1396 49.9032 24.4428 50.2183 24.1421C50.466 23.8844 52.7846 25.3235 53.2573 25.9893C53.8201 26.8269 53.9101 27.9223 53.5049 29.6191C53.1223 31.2945 52.4244 32.7335 51.8166 33.1631C51.5015 33.3779 51.5465 33.5067 52.2893 34.237C53.4149 35.3324 54.0452 36.7285 54.0452 38.1246C54.0452 39.3059 53.5725 40.745 53.1673 40.745C52.6945 40.745 52.9197 41.1745 53.5725 41.4752C54.4504 41.9263 55.8011 43.7734 56.5664 45.5776C57.1067 46.9307 57.1742 47.3603 57.1968 49.7229V52.3433L56.0487 51.1405C54.1803 49.1645 52.6495 48.0261 52.3794 48.4342C52.3119 48.5416 52.627 48.9927 53.0547 49.4652C54.1578 50.6035 54.9682 51.9996 55.1933 53.095C55.3508 53.9542 55.3058 54.169 54.5855 55.2858C54.1578 55.9731 53.4599 56.9397 53.0097 57.4551C52.2443 58.3358 52.1543 58.3787 51.1638 58.3143L50.1058 58.2499L50.1733 57.3907C50.2859 56.0161 50.646 55.1784 51.7041 53.9327C52.2443 53.3098 52.6945 52.7084 52.6945 52.644C52.6945 52.4507 52.2893 52.1715 50.2183 50.7754C49.2954 50.1525 48.4625 49.5941 48.3499 49.5296C48.1698 49.4007 48.4174 47.4677 48.8001 45.9427C48.8677 45.685 48.8226 45.4702 48.6651 45.4702C48.53 45.4702 47.8997 46.5012 47.2469 47.7684C46.6166 49.0571 46.0538 50.1525 46.0088 50.2169C45.9637 50.2814 46.6166 50.8398 47.4495 51.4842C48.3049 52.1285 49.0703 52.7084 49.1603 52.7729C49.2504 52.8588 49.1378 53.2454 48.8902 53.6535C48.3724 54.5126 47.517 57.1115 47.517 57.8418C47.517 58.2928 47.4045 58.3572 46.7516 58.3572C46.0763 58.3572 45.9863 58.2713 45.8512 57.6914C45.5585 56.2309 45.8512 54.0186 46.459 53.2454C46.5715 53.095 46.6166 52.9232 46.5265 52.8373C46.3239 52.644 44.1854 54.663 43.7577 55.4577L43.3975 56.102L43.2174 55.5221C43.1274 55.1999 42.9248 54.0616 42.7672 52.9876C42.5421 51.2694 42.5421 50.8828 42.9022 49.6585C43.42 47.8113 44.343 46.4582 45.4685 45.8998C45.9863 45.6635 46.3915 45.3628 46.3915 45.2554C46.3915 44.9547 46.1213 44.9762 44.6581 45.5132C43.7126 45.8353 42.9923 46.3079 42.0693 47.2314C41.349 47.9187 40.7637 48.6275 40.7637 48.7994C40.7637 49.2504 40.5836 49.2074 39.7282 48.4772C38.6702 47.5966 37.4096 47.0166 36.2165 46.8448C34.6182 46.63 34.6182 46.63 35.2485 45.7494C35.7437 45.0406 35.9914 44.1815 35.6987 44.1815C35.6537 44.1815 35.1585 44.6325 34.6407 45.1695C33.6052 46.2434 31.8944 47.1885 30.9714 47.1885C30.6788 47.1885 29.4857 46.8878 28.3376 46.5226C25.6363 45.6635 24.128 45.7065 22.6648 46.6945C21.4267 47.5321 21.3817 47.4677 21.2241 44.4607L21.1116 42.2914L22.1021 41.6685C22.9125 41.153 23.2951 41.0671 24.5332 41.0671C25.8389 41.0671 26.3116 41.196 28.3151 42.0766C30.9489 43.2579 31.9619 43.3653 32.7498 42.5921C33.2675 42.1196 33.29 41.9907 33.2225 39.0052C33.155 35.3324 32.8173 34.3229 31.1065 32.712C29.3956 31.1012 27.7973 31.0797 25.141 32.6046C24.2406 33.1201 22.8899 33.6571 21.7644 33.9148L19.9185 34.3873L19.0856 33.8933C18.2977 33.4208 17.3522 32.1536 17.0371 31.1441C16.902 30.7575 16.9921 30.6716 17.5323 30.5427C18.3202 30.3924 20.0536 29.0392 20.0536 28.5667C20.0536 28.309 19.9185 28.3304 19.2882 28.6956C18.8154 28.9963 18.1626 29.1466 17.4648 29.1466H16.4068L16.5643 28.3519C16.7669 27.235 17.2172 26.4833 17.8475 26.2041C18.1176 26.0537 19.3332 25.6456 20.5038 25.2805C23.1601 24.4428 23.8129 24.0777 27.0095 21.6507C30.1385 19.2666 30.5662 19.1806 32.6597 20.5982C33.7853 21.35 34.213 21.5003 35.361 21.5862C36.239 21.6507 36.8243 21.5862 37.0494 21.4144C37.4996 21.0707 37.2745 20.77 36.5766 20.77C35.8788 20.77 34.9333 20.319 34.3706 19.7176L33.9429 19.2666H35.0684C36.1264 19.2666 36.2615 19.331 37.207 20.2975C37.7697 20.8774 38.4901 21.7151 38.8052 22.1876C39.5031 23.2401 40.9438 24.5502 41.6191 24.7435C42.2494 24.9154 42.2494 24.6147 41.6416 24.0777C40.9663 23.5193 40.3135 22.1017 40.3135 21.1781C40.3135 20.5982 40.1334 20.2546 39.5256 19.6961C38.6026 18.837 38.5576 18.6222 39.278 18.6222C39.5706 18.6222 40.426 18.3215 41.1914 17.9349C42.3845 17.355 42.6546 17.0972 43.1724 16.0878C43.51 15.4434 43.8252 14.391 43.8702 13.7681C43.9603 12.6727 43.9828 12.6297 44.4555 12.866C44.7031 12.9949 45.446 13.6177 46.0988 14.2406ZM56.7015 28.4378C57.1067 28.9104 57.2193 29.2111 57.1067 29.7695C57.0167 30.3924 57.0392 30.4568 57.4219 30.3709C57.8271 30.2635 57.8721 30.3709 57.8721 31.2515C57.8496 32.1321 57.8271 32.218 57.5569 31.8744C57.3993 31.6811 57.1517 31.5092 57.0392 31.5092C56.8591 31.5092 55.8461 35.2465 55.8461 35.8479C55.8461 36.256 56.4539 35.9553 56.9041 35.3324L57.3993 34.6451L57.6245 35.225C57.782 35.6331 57.782 36.6641 57.6019 38.5756L57.3543 41.3463L56.4764 40.6805C55.621 39.9932 55.621 39.9932 55.756 38.7904C55.8911 37.5661 55.4184 35.676 54.6305 34.3229C54.3604 33.8504 54.4054 33.5926 54.9456 32.0247C55.3058 31.0367 55.666 29.7051 55.7335 29.0392C55.8236 28.3949 55.9586 27.8579 56.0262 27.8579C56.1162 27.8579 56.4089 28.1157 56.7015 28.4378ZM27.3471 32.9913C27.5272 33.249 26.9419 34.7954 26.6268 34.9028C26.4692 34.9458 26.3566 34.8384 26.3566 34.6666C26.3566 34.4947 26.2891 34.0652 26.2216 33.7C26.109 33.1846 26.1766 33.0342 26.4917 32.9483C27.167 32.7765 27.2346 32.7979 27.3471 32.9913ZM29.3056 33.7645C31.084 34.9458 32.5922 37.4158 32.3221 38.6615C32.097 39.6925 31.3541 40.702 30.5887 41.0886C29.7333 41.5182 29.5982 41.3463 29.4181 39.6925C29.058 36.8359 28.7878 36.6641 27.6623 38.5971C27.2571 39.3059 26.7618 39.8858 26.5592 39.8858C25.974 39.8858 25.7038 39.4348 25.8389 38.683C25.9064 38.2964 25.8839 37.8024 25.7939 37.5876C25.6813 37.3728 25.5913 37.0936 25.5913 36.9862C25.5688 36.8574 25.4337 36.4063 25.2536 35.9553C24.9835 35.182 25.051 34.0866 25.4112 34.0866C25.5012 34.0866 25.9064 34.6666 26.3116 35.3968C27.167 36.8788 27.6173 36.9433 27.5272 35.5901C27.4597 34.5377 27.8424 33.2275 28.2251 33.2275C28.3601 33.2275 28.8329 33.4638 29.3056 33.7645ZM24.5107 35.0532C24.4882 36.213 24.083 36.3204 23.6778 35.268C23.3627 34.4303 23.4752 34.0866 24.1055 34.0866C24.4432 34.0866 24.5107 34.2585 24.5107 35.0532ZM22.057 35.3968C22.2821 36.0412 22.2371 36.4493 21.8995 36.4493C21.6518 36.4493 21.0215 35.2894 21.1341 34.9887C21.2917 34.4947 21.8094 34.731 22.057 35.3968ZM25.3436 38.4038C25.4337 38.5112 25.4337 38.8549 25.3662 39.1556C25.2536 39.5207 25.0735 39.671 24.6683 39.671C24.0155 39.671 23.948 39.3274 24.4657 38.6401C24.8484 38.1246 25.1185 38.0387 25.3436 38.4038ZM28.7878 39.8429C28.8329 40.6805 28.7653 41.1745 28.6077 41.1745C28.4952 41.1745 28.3826 41.0886 28.3826 41.0027C28.3826 40.8953 28.135 40.702 27.8424 40.5302L27.3021 40.2509L27.7748 39.3274C28.045 38.7904 28.3601 38.4038 28.4952 38.4468C28.6077 38.4897 28.7428 39.1126 28.7878 39.8429ZM22.6198 39.177C22.8224 39.6496 21.8094 40.6376 21.3142 40.4657C20.999 40.3369 21.0215 40.2295 21.4267 39.5636C21.9445 38.7475 22.3947 38.5971 22.6198 39.177Z" fill="white"/>
<path d="M44.7932 14.5843C44.7932 14.6272 44.7481 14.9709 44.6806 15.379C44.5681 16.3025 43.7577 17.5912 42.5421 18.8155C41.484 19.8894 41.5291 20.5123 42.6546 20.3834C43.2174 20.319 43.2624 20.3405 43.0373 20.7486C42.6771 21.3929 42.7222 21.5003 43.5776 21.9299C44.3655 22.338 44.388 22.338 44.7031 21.9299C45.4235 21.0278 46.0088 19.1592 46.0313 17.6557C46.0538 16.0018 45.6261 14.5413 45.1308 14.5413C44.9507 14.5413 44.8157 14.5628 44.7932 14.5843Z" fill="white"/>
<path d="M41.3265 21.8225C41.0113 22.338 42.497 23.777 44.1854 24.5288C44.9057 24.8724 44.9958 25.0228 45.1308 25.9249C45.4235 28.0727 47.7646 31.7025 49.3404 32.4972C50.3084 32.9698 50.3309 32.8624 49.498 31.8744C47.8097 29.9413 46.7516 26.9343 46.8867 24.5502L46.9542 23.2401L45.4685 23.0897C44.0053 22.9179 42.8797 22.5527 41.9568 21.9299C41.6416 21.7151 41.439 21.6721 41.3265 21.8225Z" fill="white"/>
<path d="M29.058 21.9943C28.0225 22.4024 25.4337 24.314 25.7038 24.4858C25.7488 24.5073 27.167 24.4858 28.8329 24.4214C31.3316 24.314 32.0744 24.2066 32.9974 23.7985C33.6277 23.5408 34.5281 23.2401 35.0009 23.1756C36.6217 22.8964 36.1714 22.5742 33.7403 22.2735C30.6788 21.9084 29.4632 21.8225 29.058 21.9943ZM31.6467 22.832L32.7723 22.9823L32.0969 23.2615C31.3766 23.5622 28.6077 23.6696 28.6077 23.3904C28.6077 23.1327 29.8233 22.4883 30.1835 22.5957C30.3636 22.6387 31.0389 22.7461 31.6467 22.832Z" fill="white"/>
<path d="M35.9238 24.0777C34.7307 24.9583 33.4926 25.2805 31.3091 25.2805C29.1705 25.2805 28.6303 25.5597 30.251 25.8389C31.9394 26.1182 33.6952 25.9678 35.1585 25.4094C36.1714 25.0228 36.6667 24.9369 36.9593 25.0872C37.7022 25.4523 40.0884 25.1302 40.0884 24.6362C40.0884 24.5502 39.5031 24.3355 38.8052 24.1422C38.0849 23.9703 37.297 23.7555 37.0494 23.6911C36.7567 23.6267 36.3515 23.7555 35.9238 24.0777Z" fill="white"/>
<path d="M23.4527 24.9369C22.8224 25.5812 22.935 25.796 24.3532 26.4833C25.2761 26.9129 25.7488 26.9988 26.9644 26.9558C28.6528 26.8914 29.103 26.4833 27.7748 26.2685C26.5817 26.0537 24.5783 25.1516 24.4207 24.7435C24.2406 24.2925 24.038 24.3355 23.4527 24.9369Z" fill="white"/>
<path d="M40.5386 26.0537C40.5386 26.1182 40.8537 26.4189 41.2589 26.741C42.317 27.6002 43.5776 29.5762 44.5005 31.8958C44.9508 33.0557 45.536 34.3444 45.7611 34.774C46.2339 35.6975 46.1213 35.7405 44.7031 35.268C44.2079 35.0961 43.7802 34.9458 43.7577 34.9458C43.6676 34.9458 45.1533 38.4253 45.6261 39.3274C45.9412 39.8858 46.1663 40.3798 46.1213 40.4228C46.0763 40.4657 45.3109 40.5946 44.433 40.7235C41.1689 41.196 39.0979 42.2914 37.7247 44.2245C37.297 44.8473 36.9368 45.4272 36.9368 45.5132C36.9368 45.8568 37.3645 45.6635 38.0624 45.0406C38.4676 44.697 39.4581 44.0956 40.291 43.709C41.6416 43.0861 41.9793 43.0217 43.9152 43.0002C46.7516 43.0002 47.517 43.172 48.8452 44.1815C49.453 44.6325 49.9932 44.9762 50.0608 44.9118C50.1508 44.8044 49.9707 44.0526 49.3179 41.9907C49.0027 40.9812 48.0798 39.0696 47.6071 38.4468C47.2469 37.9528 47.2469 37.9528 47.9897 38.0816C48.4174 38.1675 49.3854 38.4682 50.1733 38.7475C50.9612 39.0482 51.659 39.2415 51.7041 39.177C51.7716 39.1126 51.2989 38.4468 50.6686 37.695C49.5205 36.3634 48.575 35.0102 46.2114 31.4663C44.7932 29.3399 42.8122 27.1491 41.6416 26.4403C40.7412 25.9034 40.5386 25.8389 40.5386 26.0537Z" fill="white"/>
<path d="M23.1826 27.5572C23.025 27.7505 22.1021 28.4808 21.1341 29.1896C20.1661 29.8984 19.3782 30.5642 19.3782 30.6716C19.3782 30.779 19.5583 31.0582 19.7609 31.2945C20.2111 31.7885 20.7064 31.7025 22.3947 30.8864C24.5783 29.8124 25.9064 28.8674 25.6363 28.5882C25.5688 28.5452 24.3982 29.0392 23.0025 29.7051C21.5843 30.3494 20.4137 30.8434 20.3462 30.8004C20.3012 30.736 20.7289 30.3279 21.3142 29.8769C22.8674 28.6741 23.8804 27.729 23.8804 27.4498C23.8804 27.1062 23.5428 27.1706 23.1826 27.5572Z" fill="white"/>
<path d="M29.5082 27.4713C29.5307 28.3949 31.8493 31.2515 33.3351 32.1751L34.3931 32.8194L34.2805 33.9363C34.213 34.8384 34.303 35.2465 34.7758 36.0841C35.4286 37.2225 35.4511 36.9862 34.3255 40.208C33.7628 41.7759 34.0104 41.9477 34.7533 40.5516C35.1584 39.7999 35.9914 38.6615 36.6442 38.0387L37.8148 36.9003L37.0044 36.4278C35.5862 35.5901 35.1584 33.786 36.1714 32.7765L36.7567 32.1965L35.8788 31.9388C33.6277 31.23 31.174 29.5118 30.3861 28.0512C29.9584 27.235 29.5082 26.9343 29.5082 27.4713Z" fill="white"/>
<path d="M32.4346 27.5143C32.4346 27.6861 32.9299 28.3519 33.5377 28.9748C34.6857 30.1776 36.6892 31.2945 37.6797 31.2945C38.2425 31.2945 38.2425 31.2945 37.9048 32.1751C37.4096 33.5926 37.8373 34.8813 39.368 36.4922C39.8182 36.9862 40.1109 37.4158 39.9758 37.4588C38.4 37.9742 34.6857 42.0981 34.6857 43.3438C34.6857 43.4727 35.1359 43.1935 35.6987 42.6995C37.4096 41.196 40.6286 39.3274 43.0823 38.4038C43.42 38.2749 43.6901 38.1031 43.6901 37.9957C43.6901 37.9098 43.0373 37.3728 42.2494 36.8144C40.4035 35.5257 39.5031 34.5377 39.1654 33.4423C38.9178 32.6691 38.9403 32.4328 39.3455 31.4878C39.6156 30.9078 39.7507 30.3924 39.6832 30.3494C39.5931 30.3065 39.1204 30.1991 38.6251 30.1131C36.6892 29.8124 34.168 28.6526 33.2225 27.6217C32.7498 27.1276 32.4346 27.0847 32.4346 27.5143Z" fill="white"/>
<path d="M35.6987 27.4069C35.6312 27.5357 35.7437 27.6431 35.9914 27.6431C37.0494 27.6431 40.0208 29.2111 40.6286 30.1131C40.8988 30.5212 40.9213 30.8434 40.7412 31.9388C40.6286 32.6906 40.5611 33.3349 40.6286 33.3779C40.8087 33.5497 42.3395 30.8434 42.3395 30.3494C42.3395 29.7051 41.0338 28.5882 39.5481 27.9653C38.1974 27.4069 35.9238 27.0847 35.6987 27.4069Z" fill="white"/>
<path d="M25.006 30.6501C24.3306 30.9938 22.935 31.4878 21.8995 31.7455C20.8189 32.0247 20.0761 32.3254 20.1211 32.4543C20.2561 32.7765 22.2146 32.6691 23.3627 32.2825C24.6008 31.8744 26.5817 30.6286 26.5817 30.285C26.5817 29.8984 26.4242 29.9413 25.006 30.6501Z" fill="white"/>
<path d="M49.7681 40.1865C49.7681 40.3583 50.1283 40.702 50.556 40.9597C51.5915 41.5826 52.1768 42.3988 52.9422 44.3318C53.9101 46.8019 55.621 48.9067 56.4314 48.606C56.769 48.4772 56.7465 48.3913 56.2063 47.8543C55.8686 47.5321 55.3058 46.5012 54.9456 45.5776C54.1353 43.5371 53.4374 42.5277 51.7041 41.0457C50.3534 39.8858 49.7681 39.6281 49.7681 40.1865Z" fill="white"/>
</g>
<defs>
<clipPath id="clip0_8_2">
<rect width="60" height="60" fill="white"/>
</clipPath>
</defs>
</svg>
