<?xml version="1.0" encoding="UTF-8" standalone="no"?><svg xmlns="http://www.w3.org/2000/svg" xmlns:xlink="http://www.w3.org/1999/xlink" contentScriptType="application/ecmascript" contentStyleType="text/css" height="997.2px" preserveAspectRatio="none" style="width:1629px;height:997px;" version="1.1" viewBox="0 0 1629 997" width="1629px" zoomAndPan="magnify"><defs><filter height="300%" id="fvgm6trv1v3uo" width="300%" x="-1" y="-1"><feGaussianBlur result="blurOut" stdDeviation="1.8"/><feColorMatrix in="blurOut" result="blurOut2" type="matrix" values="0 0 0 0 0 0 0 0 0 0 0 0 0 0 0 0 0 0 .4 0"/><feOffset dx="3.6" dy="3.6" in="blurOut2" result="blurOut3"/><feBlend in="SourceGraphic" in2="blurOut3" mode="normal"/></filter></defs><g><!--MD5=[86f3deb032ffd1616ce2ddd800d6d209]
entity tigUsr--><ellipse cx="33.3" cy="303.894" fill="#FEFECE" filter="url(#fvgm6trv1v3uo)" rx="14.4" ry="14.4" style="stroke:#A80036;stroke-width:1.35;"/><path d="M33.3,321.894 C36.9,321.894 39.6,321.894 43.2,318.294 C50.4,318.294 57.6,325.494 57.6,332.694 L57.6,336.294 C57.6,339.894 54,343.494 50.4,343.494 L16.2,343.494 C12.6,343.494 9,339.894 9,336.294 L9,332.694 C9,325.494 16.2,318.294 23.4,318.294 C27,321.894 29.7,321.894 33.3,321.894 " fill="#FEFECE" filter="url(#fvgm6trv1v3uo)" style="stroke:#A80036;stroke-width:1.35;"/><text fill="#000000" font-family="sans-serif" font-size="12.6" lengthAdjust="spacing" textLength="55.8" x="5.4" y="357.9239">TigerUser</text><!--MD5=[9bc052f92cc12dcdbffa98086d6436ae]
entity gemTT--><ellipse cx="233.1" cy="391.194" fill="#FEFECE" filter="url(#fvgm6trv1v3uo)" rx="14.4" ry="14.4" style="stroke:#A80036;stroke-width:1.35;"/><path d="M233.1,409.194 C236.7,409.194 239.4,409.194 243,405.594 C250.2,405.594 257.4,412.794 257.4,419.994 L257.4,423.594 C257.4,427.194 253.8,430.794 250.2,430.794 L216,430.794 C212.4,430.794 208.8,427.194 208.8,423.594 L208.8,419.994 C208.8,412.794 216,405.594 223.2,405.594 C226.8,409.194 229.5,409.194 233.1,409.194 " fill="#FEFECE" filter="url(#fvgm6trv1v3uo)" style="stroke:#A80036;stroke-width:1.35;"/><text fill="#000000" font-family="sans-serif" font-size="12.6" lengthAdjust="spacing" textLength="104.4" x="180.9" y="445.2239">GematikTestTeam</text><!--MD5=[11f8cb844e00ebd2bdd8a18258e232a7]
entity extProd--><ellipse cx="233.1" cy="194.094" fill="#FEFECE" filter="url(#fvgm6trv1v3uo)" rx="14.4" ry="14.4" style="stroke:#A80036;stroke-width:1.35;"/><path d="M233.1,212.094 C236.7,212.094 239.4,212.094 243,208.494 C250.2,208.494 257.4,215.694 257.4,222.894 L257.4,226.494 C257.4,230.094 253.8,233.694 250.2,233.694 L216,233.694 C212.4,233.694 208.8,230.094 208.8,226.494 L208.8,222.894 C208.8,215.694 216,208.494 223.2,208.494 C226.8,212.094 229.5,212.094 233.1,212.094 " fill="#FEFECE" filter="url(#fvgm6trv1v3uo)" style="stroke:#A80036;stroke-width:1.35;"/><text fill="#000000" font-family="sans-serif" font-size="12.6" lengthAdjust="spacing" textLength="117.9" x="174.15" y="248.1239">ExternalPoductTeam</text><ellipse cx="990.6211" cy="140.2182" fill="#90EE90" filter="url(#fvgm6trv1v3uo)" rx="136.0711" ry="29.3742" style="stroke:#008000;stroke-width:1.35;"/><text fill="#000000" font-family="sans-serif" font-size="12.6" font-style="italic" lengthAdjust="spacing" textLength="65.7" x="957.7711" y="127.7254">«Business»</text><text fill="#000000" font-family="sans-serif" font-size="12.6" lengthAdjust="spacing" textLength="243.9" x="868.6711" y="143.5739">Reuse cases/steps from existing test suites</text><line style="stroke:#008000;stroke-width:1.35;" x1="1115.8468" x2="1085.5674" y1="129.9784" y2="160.2578"/><ellipse cx="990.5483" cy="249.1937" fill="#90EE90" filter="url(#fvgm6trv1v3uo)" rx="129.6983" ry="28.0997" style="stroke:#008000;stroke-width:1.35;"/><text fill="#000000" font-family="sans-serif" font-size="12.6" font-style="italic" lengthAdjust="spacing" textLength="65.7" x="956.5146" y="237.4215">«Business»</text><text fill="#000000" font-family="sans-serif" font-size="12.6" lengthAdjust="spacing" textLength="230.4" x="874.1646" y="253.2699">Set up test environments more efficiently</text><line style="stroke:#008000;stroke-width:1.35;" x1="1109.9091" x2="1080.9139" y1="239.3981" y2="268.3933"/><ellipse cx="595.7744" cy="441.6789" fill="#90EE90" filter="url(#fvgm6trv1v3uo)" rx="140.3744" ry="30.2349" style="stroke:#008000;stroke-width:1.35;"/><text fill="#000000" font-family="sans-serif" font-size="12.6" font-style="italic" lengthAdjust="spacing" textLength="65.7" x="562.9244" y="429.1861">«Business»</text><text fill="#000000" font-family="sans-serif" font-size="12.6" lengthAdjust="spacing" textLength="252.9" x="469.3244" y="445.0346">Perform automated IOP tests more efficiently</text><line style="stroke:#008000;stroke-width:1.35;" x1="724.9604" x2="693.8138" y1="431.139" y2="462.2857"/><ellipse cx="990.5166" cy="741.3073" fill="#90EE90" filter="url(#fvgm6trv1v3uo)" rx="149.0166" ry="31.9633" style="stroke:#008000;stroke-width:1.35;"/><text fill="#000000" font-family="sans-serif" font-size="12.6" font-style="italic" lengthAdjust="spacing" textLength="65.7" x="957.6666" y="728.8146">«Business»</text><text fill="#000000" font-family="sans-serif" font-size="12.6" lengthAdjust="spacing" textLength="267.3" x="855.0666" y="744.663">Perform analysis of test failures more efficiently</text><line style="stroke:#008000;stroke-width:1.35;" x1="1127.656" x2="1094.7674" y1="730.1649" y2="763.0535"/><ellipse cx="233.2757" cy="845.6391" fill="#90EE90" filter="url(#fvgm6trv1v3uo)" rx="117.1757" ry="25.5951" style="stroke:#008000;stroke-width:1.35;"/><text fill="#000000" font-family="sans-serif" font-size="12.6" font-style="italic" lengthAdjust="spacing" textLength="86.4" x="185.2849" y="837.5515">«NextRelease»</text><text fill="#808080" font-family="sans-serif" font-size="12.6" lengthAdjust="spacing" textLength="191.7" x="132.6349" y="853.3999">Support non Java Testautomation</text><line style="stroke:#008000;stroke-width:1.35;" x1="341.112" x2="314.6397" y1="836.7167" y2="863.1889"/><ellipse cx="1431.8041" cy="357.9648" fill="#FEFECE" filter="url(#fvgm6trv1v3uo)" rx="95.3041" ry="21.2208" style="stroke:#A80036;stroke-width:1.35;"/><text fill="#000000" font-family="sans-serif" font-size="12.6" lengthAdjust="spacing" textLength="156.6" x="1353.5041" y="361.3205">Use local docker containers</text><ellipse cx="1431.9074" cy="132.8955" fill="#FEFECE" filter="url(#fvgm6trv1v3uo)" rx="115.2074" ry="25.2015" style="stroke:#A80036;stroke-width:1.35;"/><text fill="#000000" font-family="sans-serif" font-size="12.6" lengthAdjust="spacing" textLength="199.8" x="1332.0074" y="136.2511">Use cloud based docker containers</text><ellipse cx="1431.9854" cy="212.2911" fill="#FEFECE" filter="url(#fvgm6trv1v3uo)" rx="102.6854" ry="22.6971" style="stroke:#A80036;stroke-width:1.35;"/><text fill="#000000" font-family="sans-serif" font-size="12.6" lengthAdjust="spacing" textLength="172.8" x="1345.5854" y="215.6467">Use test instances from TU/RU</text><ellipse cx="1431.9099" cy="286.076" fill="#FEFECE" filter="url(#fvgm6trv1v3uo)" rx="86.8599" ry="19.532" style="stroke:#A80036;stroke-width:1.35;"/><text fill="#000000" font-family="sans-serif" font-size="12.6" lengthAdjust="spacing" textLength="137.7" x="1363.0599" y="289.4316">Use self hosted services</text><ellipse cx="990.6213" cy="420.8383" fill="#FEFECE" filter="url(#fvgm6trv1v3uo)" rx="85.6713" ry="19.2943" style="stroke:#A80036;stroke-width:1.35;"/><text fill="#000000" font-family="sans-serif" font-size="12.6" lengthAdjust="spacing" textLength="135" x="923.1213" y="424.1939">Sync test cases to Titus</text><ellipse cx="990.5515" cy="493.9043" fill="#FEFECE" filter="url(#fvgm6trv1v3uo)" rx="97.7515" ry="21.7103" style="stroke:#A80036;stroke-width:1.35;"/><text fill="#000000" font-family="sans-serif" font-size="12.6" lengthAdjust="spacing" textLength="162" x="909.5515" y="497.26">Sync test run results to Titus</text><ellipse cx="1431.7091" cy="741.2558" fill="#FEFECE" filter="url(#fvgm6trv1v3uo)" rx="187.0091" ry="39.5618" style="stroke:#A80036;stroke-width:1.35;"/><text fill="#000000" font-family="sans-serif" font-size="12.6" lengthAdjust="spacing" textLength="349.2" x="1257.1091" y="744.6115">Analyze test runs based on local reports with detailed testlogs</text><ellipse cx="990.4249" cy="575.689" fill="#FEFECE" filter="url(#fvgm6trv1v3uo)" rx="130.9249" ry="28.345" style="stroke:#A80036;stroke-width:1.35;"/><text fill="#000000" font-family="sans-serif" font-size="12.6" lengthAdjust="spacing" textLength="233.1" x="873.8749" y="579.0447">See requirements coverage in test report</text><ellipse cx="990.4857" cy="656.5211" fill="#FEFECE" filter="url(#fvgm6trv1v3uo)" rx="94.0857" ry="20.9771" style="stroke:#A80036;stroke-width:1.35;"/><text fill="#000000" font-family="sans-serif" font-size="12.6" lengthAdjust="spacing" textLength="153.9" x="913.5357" y="659.8768">Sync test cases to Polarion</text><ellipse cx="990.5212" cy="339.9982" fill="#FEFECE" filter="url(#fvgm6trv1v3uo)" rx="138.2212" ry="29.8042" style="stroke:#A80036;stroke-width:1.35;"/><text fill="#000000" font-family="sans-serif" font-size="12.6" lengthAdjust="spacing" textLength="248.4" x="866.3212" y="343.3539">Sync test run results to Polarion and Aurora</text><ellipse cx="595.7476" cy="806.0835" fill="#FEFECE" filter="url(#fvgm6trv1v3uo)" rx="94.8976" ry="21.1395" style="stroke:#A80036;stroke-width:1.35;"/><text fill="#000000" font-family="sans-serif" font-size="12.6" lengthAdjust="spacing" textLength="155.7" x="517.8976" y="809.4392">Support C# test automation</text><ellipse cx="595.7406" cy="880.7821" fill="#FEFECE" filter="url(#fvgm6trv1v3uo)" rx="99.3906" ry="22.0381" style="stroke:#A80036;stroke-width:1.35;"/><text fill="#000000" font-family="sans-serif" font-size="12.6" lengthAdjust="spacing" textLength="165.6" x="512.9406" y="884.1378">Support Rust test automation</text><ellipse cx="595.8746" cy="960.7289" fill="#FEFECE" filter="url(#fvgm6trv1v3uo)" rx="121.1246" ry="26.3849" style="stroke:#A80036;stroke-width:1.35;"/><text fill="#000000" font-family="sans-serif" font-size="12.6" lengthAdjust="spacing" textLength="212.4" x="489.6746" y="964.0846">Provide REST API for test automation</text><!--MD5=[fcb41b49dd96fe4860a323432586328d]
reverse link tigUsr to gemTT--><path d="M77.841,343.836 C108.162,357.201 148.689,375.075 180.603,389.142 " fill="none" id="tigUsr-backto-gemTT" style="stroke:#A80036;stroke-width:0.9;"/><polygon fill="none" points="75.24,349.578,61.317,336.546,80.325,338.049,75.24,349.578" style="stroke:#A80036;stroke-width:0.9;"/><!--MD5=[bd34c70e77a5b10dabde63de8d2f5594]
reverse link tigUsr to extProd--><path d="M75.186,285.273 C79.434,281.943 83.808,278.793 88.2,275.994 C114.777,259.065 146.835,244.908 173.943,234.495 " fill="none" id="tigUsr-backto-extProd" style="stroke:#A80036;stroke-width:0.9;"/><polygon fill="none" points="79.164,290.16,61.353,296.982,71.019,280.548,79.164,290.16" style="stroke:#A80036;stroke-width:0.9;"/><!--MD5=[fda960697d312673f7e9128f4283e035]
link tigUsr to BBSUC1--><path d="M41.319,287.928 C50.967,249.3 72.297,190.314 116.1,162.594 C364.491,5.4 737.316,73.296 903.861,115.578 " fill="none" id="tigUsr-to-BBSUC1" style="stroke:#A80036;stroke-width:0.9;"/><polygon fill="#A80036" points="908.244,116.694,901.2931,111.1935,903.8853,115.5754,899.5034,118.1675,908.244,116.694" style="stroke:#A80036;stroke-width:0.9;"/><!--MD5=[8c0669a6dfa1397ce0384d18311c64bc]
link tigUsr to BBSUC2--><path d="M61.254,322.452 C177.435,313.263 638.388,276.786 863.928,258.939 " fill="none" id="tigUsr-to-BBSUC2" style="stroke:#A80036;stroke-width:0.9;"/><polygon fill="#A80036" points="868.554,258.57,860.2005,255.6055,864.0674,258.9171,860.7558,262.7841,868.554,258.57" style="stroke:#A80036;stroke-width:0.9;"/><!--MD5=[23cd2146100550ce0ec1191add59f0b7]
link gemTT to BBSUC3--><path d="M285.327,416.115 C330.651,419.85 398.817,425.457 459.648,430.461 " fill="none" id="gemTT-to-BBSUC3" style="stroke:#A80036;stroke-width:0.9;"/><polygon fill="#A80036" points="464.391,430.857,456.6169,426.5986,459.9065,430.4844,456.0207,433.7739,464.391,430.857" style="stroke:#A80036;stroke-width:0.9;"/><!--MD5=[25fb245ec0d3b2003d3d4677358f8f9a]
link tigUsr to BBSUC4--><path d="M47.232,361.332 C60.147,392.769 82.845,437.112 116.1,464.094 C332.487,639.675 661.671,704.763 847.998,728.352 " fill="none" id="tigUsr-to-BBSUC4" style="stroke:#A80036;stroke-width:0.9;"/><polygon fill="#A80036" points="852.642,728.937,845.0592,724.3467,848.1777,728.3709,844.1535,731.4895,852.642,728.937" style="stroke:#A80036;stroke-width:0.9;"/><!--MD5=[afdcd907771ac39c11b040fcf0a27869]
link tigUsr to BBSUC5--><path d="M34.668,361.107 C36.495,453.645 45.342,694.665 88.2,760.194 C106.551,788.256 137.592,808.389 166.167,822.033 " fill="none" id="tigUsr-to-BBSUC5" style="stroke:#A80036;stroke-width:0.9;"/><polygon fill="#A80036" points="170.361,824.004,164.5618,817.3003,166.2884,822.0898,161.499,823.8164,170.361,824.004" style="stroke:#A80036;stroke-width:0.9;"/><!--MD5=[cbbb5ddc6e516c7b2bb4c01bdd06323b]
link BBSUC2 to TEMUC1--><path d="M1065.483,271.782 C1115.766,286.812 1183.905,306.36 1244.7,320.994 C1279.98,329.49 1319.364,337.5 1352.79,343.872 " fill="none" id="BBSUC2-to-TEMUC1" style="stroke:#A80036;stroke-width:0.9;stroke-dasharray:7.0,7.0;"/><polygon fill="#A80036" points="1357.254,344.718,1349.9632,339.6767,1352.8322,343.8825,1348.6264,346.7515,1357.254,344.718" style="stroke:#A80036;stroke-width:0.9;"/><text fill="#000000" font-family="sans-serif" font-size="11.7" lengthAdjust="spacing" textLength="49.5" x="1167.3" y="298.0396">«include»</text><!--MD5=[baa5e15cb43456fbb75cf2b7b7db4922]
link BBSUC2 to TEMUC2--><path d="M1111.482,238.914 C1180.386,233.127 1265.859,225.954 1331.064,220.482 " fill="none" id="BBSUC2-to-TEMUC2" style="stroke:#A80036;stroke-width:0.9;stroke-dasharray:7.0,7.0;"/><polygon fill="#A80036" points="1335.717,220.095,1327.3467,217.1781,1331.2325,220.4676,1327.9429,224.3534,1335.717,220.095" style="stroke:#A80036;stroke-width:0.9;"/><text fill="#000000" font-family="sans-serif" font-size="11.7" lengthAdjust="spacing" textLength="49.5" x="1167.3" y="227.8396">«include»</text><!--MD5=[8c072e1f020684c371393449090c4d80]
link BBSUC2 to TEMUC3--><path d="M1063.566,225.855 C1114.029,210.078 1183.14,189.243 1244.7,173.394 C1276.245,165.267 1311.066,157.41 1341.981,150.804 " fill="none" id="BBSUC2-to-TEMUC3" style="stroke:#A80036;stroke-width:0.9;stroke-dasharray:7.0,7.0;"/><polygon fill="#A80036" points="1346.517,149.841,1337.844,148.0112,1342.1161,150.7804,1339.3469,155.0525,1346.517,149.841" style="stroke:#A80036;stroke-width:0.9;"/><text fill="#000000" font-family="sans-serif" font-size="11.7" lengthAdjust="spacing" textLength="49.5" x="1167.3" y="178.3396">«include»</text><!--MD5=[f7dbf8cdd9a4257b287cae5a78ad5d23]
link BBSUC2 to TEMUC4--><path d="M1111.482,259.074 C1185.597,265.293 1278.891,273.123 1345.5,278.721 " fill="none" id="BBSUC2-to-TEMUC4" style="stroke:#A80036;stroke-width:0.9;stroke-dasharray:7.0,7.0;"/><polygon fill="#A80036" points="1350.252,279.117,1342.4779,274.8586,1345.7675,278.7444,1341.8817,282.0339,1350.252,279.117" style="stroke:#A80036;stroke-width:0.9;"/><text fill="#000000" font-family="sans-serif" font-size="11.7" lengthAdjust="spacing" textLength="49.5" x="1167.3" y="261.1396">«include»</text><!--MD5=[18219cb2f16aa78a155519e0975286d6]
link BBSUC3 to BBSUC1--><path d="M621.117,411.912 C662.319,363.33 750.168,266.121 841.5,204.894 C863.865,189.9 890.262,177.048 914.526,166.833 " fill="none" id="BBSUC3-to-BBSUC1" style="stroke:#A80036;stroke-width:0.9;stroke-dasharray:7.0,7.0;"/><polygon fill="#A80036" points="918.711,165.087,909.8492,164.889,914.5591,166.8223,912.6258,171.5322,918.711,165.087" style="stroke:#A80036;stroke-width:0.9;"/><text fill="#000000" font-family="sans-serif" font-size="11.7" lengthAdjust="spacing" textLength="49.5" x="764.1" y="223.3396">«include»</text><!--MD5=[61d33c9d9b055cc88aeb9e932c85a5d9]
link BBSUC3 to BBSUC2--><path d="M664.254,415.224 C719.127,392.877 791.109,361.161 814.5,339.894 C832.014,323.973 822.906,308.637 841.5,293.994 C855,283.356 871.011,275.229 887.418,269.019 " fill="none" id="BBSUC3-to-BBSUC2" style="stroke:#A80036;stroke-width:0.9;stroke-dasharray:7.0,7.0;"/><polygon fill="#A80036" points="892.053,267.318,883.2076,266.7439,887.8311,268.8755,885.6996,273.4989,892.053,267.318" style="stroke:#A80036;stroke-width:0.9;"/><text fill="#000000" font-family="sans-serif" font-size="11.7" lengthAdjust="spacing" textLength="49.5" x="764.1" y="336.7396">«include»</text><!--MD5=[6260ce83960a4a48a8ca7f32a2006a02]
link BBSUC3 to BBSUC4--><path d="M616.563,471.672 C653.805,525.465 739.611,637.731 841.5,693.594 C856.782,701.973 873.765,709.155 890.622,715.221 " fill="none" id="BBSUC3-to-BBSUC4" style="stroke:#A80036;stroke-width:0.9;stroke-dasharray:7.0,7.0;"/><polygon fill="#A80036" points="894.906,716.733,888.4746,710.6332,890.6647,715.2293,886.0686,717.4193,894.906,716.733" style="stroke:#A80036;stroke-width:0.9;"/><text fill="#000000" font-family="sans-serif" font-size="11.7" lengthAdjust="spacing" textLength="49.5" x="764.1" y="635.5396">«include»</text><!--MD5=[4cdddafdcc833b615b97bba30dbcf63b]
link BBSUC3 to TCUC1--><path d="M735.921,444.015 C745.155,444.132 754.308,444.222 763.2,444.294 C785.997,444.483 791.748,445.806 814.5,444.294 C848.034,442.062 884.943,437.454 916.191,432.909 " fill="none" id="BBSUC3-to-TCUC1" style="stroke:#A80036;stroke-width:0.9;stroke-dasharray:7.0,7.0;"/><polygon fill="#A80036" points="920.754,432.243,912.2156,429.8626,916.3021,432.8992,913.2655,436.9857,920.754,432.243" style="stroke:#A80036;stroke-width:0.9;"/><text fill="#000000" font-family="sans-serif" font-size="11.7" lengthAdjust="spacing" textLength="49.5" x="764.1" y="441.1396">«include»</text><!--MD5=[c7b328f748a95371eb185de81dfffa35]
link BBSUC3 to TCUC2--><path d="M706.743,460.233 C725.553,463.194 744.921,466.092 763.2,468.594 C806.859,474.561 855.414,480.105 896.31,484.47 " fill="none" id="BBSUC3-to-TCUC2" style="stroke:#A80036;stroke-width:0.9;stroke-dasharray:7.0,7.0;"/><polygon fill="#A80036" points="901.008,484.974,893.334,480.5378,896.5332,484.4982,892.5728,487.6974,901.008,484.974" style="stroke:#A80036;stroke-width:0.9;"/><text fill="#000000" font-family="sans-serif" font-size="11.7" lengthAdjust="spacing" textLength="49.5" x="764.1" y="465.4396">«include»</text><!--MD5=[d69fc29b673971ce80a2c4c51340ff12]
link BBSUC3 to SIUC2--><path d="M665.73,467.847 C714.582,486.144 781.758,510.759 841.5,530.694 C862.677,537.759 885.699,544.977 907.146,551.511 " fill="none" id="BBSUC3-to-SIUC2" style="stroke:#A80036;stroke-width:0.9;stroke-dasharray:7.0,7.0;"/><polygon fill="#A80036" points="911.691,552.888,904.9957,547.0792,907.3872,551.5737,902.8927,553.9652,911.691,552.888" style="stroke:#A80036;stroke-width:0.9;"/><text fill="#000000" font-family="sans-serif" font-size="11.7" lengthAdjust="spacing" textLength="49.5" x="764.1" y="502.3396">«include»</text><!--MD5=[d7790ae895a4dc4b638b6852ecac68ff]
link BBSUC3 to PIUC1--><path d="M628.542,471.123 C672.921,510.714 757.431,580.545 841.5,619.794 C862.992,629.829 887.553,637.353 910.422,642.906 " fill="none" id="BBSUC3-to-PIUC1" style="stroke:#A80036;stroke-width:0.9;stroke-dasharray:7.0,7.0;"/><polygon fill="#A80036" points="914.967,643.986,907.9218,638.6068,910.5895,642.9431,906.2532,645.6108,914.967,643.986" style="stroke:#A80036;stroke-width:0.9;"/><text fill="#000000" font-family="sans-serif" font-size="11.7" lengthAdjust="spacing" textLength="49.5" x="764.1" y="577.0396">«include»</text><!--MD5=[f518f84b419bbd3f918b2a5c73578699]
link BBSUC3 to PIUC2--><path d="M696.249,420.426 C733.482,412.128 776.052,402.183 814.5,392.094 C844.785,384.147 877.743,374.571 906.804,365.796 " fill="none" id="BBSUC3-to-PIUC2" style="stroke:#A80036;stroke-width:0.9;stroke-dasharray:7.0,7.0;"/><polygon fill="#A80036" points="911.439,364.392,902.6416,363.3074,907.1341,365.7027,904.7388,370.1952,911.439,364.392" style="stroke:#A80036;stroke-width:0.9;"/><text fill="#000000" font-family="sans-serif" font-size="11.7" lengthAdjust="spacing" textLength="49.5" x="764.1" y="388.9396">«include»</text><!--MD5=[75ec4d3b4ab2fd80c5c502f361c89593]
link BBSUC4 to SIUC1--><path d="M1139.58,741.294 C1171.791,741.294 1206.297,741.294 1239.894,741.294 " fill="none" id="BBSUC4-to-SIUC1" style="stroke:#A80036;stroke-width:0.9;stroke-dasharray:7.0,7.0;"/><polygon fill="#A80036" points="1244.421,741.294,1236.321,737.694,1239.921,741.294,1236.321,744.894,1244.421,741.294" style="stroke:#A80036;stroke-width:0.9;"/><text fill="#000000" font-family="sans-serif" font-size="11.7" lengthAdjust="spacing" textLength="49.5" x="1167.3" y="738.1396">«include»</text><!--MD5=[9b1c77b1b91e96e593191aa0d1f08adf]
link BBSUC5 to NJTUC1--><path d="M338.148,834.264 C391.194,828.441 455.04,821.439 505.791,815.868 " fill="none" id="BBSUC5-to-NJTUC1" style="stroke:#A80036;stroke-width:0.9;stroke-dasharray:7.0,7.0;"/><polygon fill="#A80036" points="510.345,815.373,501.9021,812.6735,505.8716,815.8615,502.6836,819.831,510.345,815.373" style="stroke:#A80036;stroke-width:0.9;"/><text fill="#000000" font-family="sans-serif" font-size="11.7" lengthAdjust="spacing" textLength="49.5" x="378" y="821.8396">«include»</text><!--MD5=[b409dedb6370f2e93122ca58d9418d6a]
link BBSUC5 to NJTUC2--><path d="M338.319,857.043 C351.369,858.402 364.545,859.752 377.1,860.994 C416.763,864.918 460.53,868.95 498.357,872.352 " fill="none" id="BBSUC5-to-NJTUC2" style="stroke:#A80036;stroke-width:0.9;stroke-dasharray:7.0,7.0;"/><polygon fill="#A80036" points="502.938,872.757,495.1883,868.4545,498.4556,872.3589,494.5512,875.6262,502.938,872.757" style="stroke:#A80036;stroke-width:0.9;"/><text fill="#000000" font-family="sans-serif" font-size="11.7" lengthAdjust="spacing" textLength="49.5" x="378" y="857.8396">«include»</text><!--MD5=[8e2a2d61f72f763817e72078aa1e84bb]
link BBSUC5 to NJTUC3--><path d="M297.819,867.15 C341.973,881.892 402.156,901.755 455.4,918.594 C476.01,925.11 498.402,931.986 519.084,938.259 " fill="none" id="BBSUC5-to-NJTUC3" style="stroke:#A80036;stroke-width:0.9;stroke-dasharray:7.0,7.0;"/><polygon fill="#A80036" points="523.476,939.591,516.7648,933.8006,519.1686,938.2885,514.6807,940.6923,523.476,939.591" style="stroke:#A80036;stroke-width:0.9;"/><text fill="#000000" font-family="sans-serif" font-size="11.7" lengthAdjust="spacing" textLength="49.5" x="378" y="892.0396">«include»</text><!--MD5=[742899e18318e07b923da053219c2f03]
@startuml

skinparam actorStyle awesome

skinparam usecase {
    BackgroundColor<<Business>> LightGreen
    BorderColor<<Business>> Green
    BackgroundColor<<NextRelease>> LightGreen
    FontColor<<NextRelease>> Gray
    BorderColor<<NextRelease>> Green
}

skinparam StereotypeTitleOpening [
skinparam StereotypeTitleClosing ]

actor TigerUser as tigUsr
actor GematikTestTeam as gemTT
actor ExternalPoductTeam as extProd

left to right direction

tigUsr <|- - gemTT
tigUsr <|- - extProd

usecase/ "Reuse cases/steps from existing test suites"  as BBSUC1 << Business >>
usecase/ "Set up test environments more efficiently" as BBSUC2 << Business >>
usecase/ "Perform automated IOP tests more efficiently" as BBSUC3 << Business >>
usecase/ "Perform analysis of test failures more efficiently " as BBSUC4 << Business >>
usecase/ "Support non Java Testautomation" as BBSUC5 << NextRelease >>

tigUsr - -> BBSUC1
tigUsr - -> BBSUC2
gemTT - -> BBSUC3
tigUsr - -> BBSUC4
tigUsr - -> BBSUC5

' package TestEnvironmentManager {
    usecase "Use local docker containers" as TEMUC1
    usecase "Use cloud based docker containers" as TEMUC3
    usecase "Use test instances from TU/RU" as TEMUC2
    usecase "Use self hosted services" as TEMUC4
' }

' package TitusConnect {
  usecase "Sync test cases to Titus" as TCUC1
  usecase "Sync test run results to Titus" as TCUC2
' }

' package SerenityIntegration {
    usecase "Analyze test runs based on local reports with detailed testlogs" as SIUC1
    usecase "See requirements coverage in test report" as SIUC2
' }

' package PolarionIntegration {
    usecase "Sync test cases to Polarion" as PIUC1
    usecase "Sync test run results to Polarion and Aurora" as PIUC2
' }

usecase "Support C# test automation" as NJTUC1
usecase "Support Rust test automation" as NJTUC2
usecase "Provide REST API for test automation" as NJTUC3

BBSUC2 ..> TEMUC1  : &#171;include&#187;
BBSUC2 ..> TEMUC2 : &#171;include&#187;
BBSUC2 ..> TEMUC3 : &#171;include&#187;
BBSUC2 ..> TEMUC4 : &#171;include&#187;

BBSUC3 ..> BBSUC1 : &#171;include&#187;
BBSUC3 ..> BBSUC2 : &#171;include&#187;
BBSUC3 ..> BBSUC4 : &#171;include&#187;

BBSUC3 ..> TCUC1  : &#171;include&#187;
BBSUC3 ..> TCUC2  : &#171;include&#187;
BBSUC3 ..> SIUC2  : &#171;include&#187;
BBSUC3 ..> PIUC1  : &#171;include&#187;
BBSUC3 ..> PIUC2  : &#171;include&#187;

BBSUC4 ..> SIUC1  : &#171;include&#187;

BBSUC5 ..> NJTUC1  : &#171;include&#187;
BBSUC5 ..> NJTUC2  : &#171;include&#187;
BBSUC5 ..> NJTUC3  : &#171;include&#187;

@enduml

@startuml

skinparam actorStyle awesome

skinparam usecase {
    BackgroundColor<<Business>> LightGreen
    BorderColor<<Business>> Green
    BackgroundColor<<NextRelease>> LightGreen
    FontColor<<NextRelease>> Gray
    BorderColor<<NextRelease>> Green
}

skinparam StereotypeTitleOpening [
skinparam StereotypeTitleClosing ]

actor TigerUser as tigUsr
actor GematikTestTeam as gemTT
actor ExternalPoductTeam as extProd

left to right direction

tigUsr <|- - gemTT
tigUsr <|- - extProd

usecase/ "Reuse cases/steps from existing test suites"  as BBSUC1 << Business >>
usecase/ "Set up test environments more efficiently" as BBSUC2 << Business >>
usecase/ "Perform automated IOP tests more efficiently" as BBSUC3 << Business >>
usecase/ "Perform analysis of test failures more efficiently " as BBSUC4 << Business >>
usecase/ "Support non Java Testautomation" as BBSUC5 << NextRelease >>

tigUsr - -> BBSUC1
tigUsr - -> BBSUC2
gemTT - -> BBSUC3
tigUsr - -> BBSUC4
tigUsr - -> BBSUC5

    usecase "Use local docker containers" as TEMUC1
    usecase "Use cloud based docker containers" as TEMUC3
    usecase "Use test instances from TU/RU" as TEMUC2
    usecase "Use self hosted services" as TEMUC4

  usecase "Sync test cases to Titus" as TCUC1
  usecase "Sync test run results to Titus" as TCUC2

    usecase "Analyze test runs based on local reports with detailed testlogs" as SIUC1
    usecase "See requirements coverage in test report" as SIUC2

    usecase "Sync test cases to Polarion" as PIUC1
    usecase "Sync test run results to Polarion and Aurora" as PIUC2

usecase "Support C# test automation" as NJTUC1
usecase "Support Rust test automation" as NJTUC2
usecase "Provide REST API for test automation" as NJTUC3

BBSUC2 ..> TEMUC1  : &#171;include&#187;
BBSUC2 ..> TEMUC2 : &#171;include&#187;
BBSUC2 ..> TEMUC3 : &#171;include&#187;
BBSUC2 ..> TEMUC4 : &#171;include&#187;

BBSUC3 ..> BBSUC1 : &#171;include&#187;
BBSUC3 ..> BBSUC2 : &#171;include&#187;
BBSUC3 ..> BBSUC4 : &#171;include&#187;

BBSUC3 ..> TCUC1  : &#171;include&#187;
BBSUC3 ..> TCUC2  : &#171;include&#187;
BBSUC3 ..> SIUC2  : &#171;include&#187;
BBSUC3 ..> PIUC1  : &#171;include&#187;
BBSUC3 ..> PIUC2  : &#171;include&#187;

BBSUC4 ..> SIUC1  : &#171;include&#187;

BBSUC5 ..> NJTUC1  : &#171;include&#187;
BBSUC5 ..> NJTUC2  : &#171;include&#187;
BBSUC5 ..> NJTUC3  : &#171;include&#187;

@enduml

PlantUML version 1.2021.2(Sun Mar 07 12:10:27 CET 2021)
(GPL source distribution)
Java Runtime: OpenJDK Runtime Environment
JVM: Dynamic Code Evolution 64-Bit Server VM
Default Encoding: Cp1252
Language: en
Country: US
--></g></svg>