<?xml version="1.0" encoding="UTF-8" standalone="no"?><svg xmlns="http://www.w3.org/2000/svg" xmlns:xlink="http://www.w3.org/1999/xlink" contentStyleType="text/css" height="618.5px" preserveAspectRatio="none" style="width:1290px;height:618px;background:#FFFFF0;" version="1.1" viewBox="0 0 1290 618" width="1290.5px" zoomAndPan="magnify"><defs/><g><rect fill="#FFFFF0" height="618.5" style="stroke:none;stroke-width:0.5;" width="1290.5" x="0" y="0"/><rect fill="#FFFFFF" height="27.4609" id="_title" rx="5" ry="5" style="stroke:#808080;stroke-width:0.5;" width="251" x="517.5206" y="15"/><text fill="#333333" font-family="sans-serif" font-size="15" font-weight="bold" lengthAdjust="spacing" textLength="151" x="567.5206" y="33.9233">Tiger components</text><!--cluster tsys--><g id="cluster_tsys"><rect fill="#FFFFF0" height="261.25" rx="5" ry="5" style="stroke:#0000FF;stroke-width:0.5;" width="407" x="29.5412" y="124.8159"/><text fill="#333333" font-family="sans-serif" font-size="15" font-weight="bold" lengthAdjust="spacing" textLength="148" x="159.0413" y="139.7393">Test environment</text></g><!--cluster tiger--><g id="cluster_tiger"><rect fill="#FFFFF0" height="528.5" rx="5" ry="5" style="stroke:#808080;stroke-width:0.5;" width="746" x="529.0413" y="74.5659"/><text fill="#333333" font-family="sans-serif" font-size="15" font-weight="bold" lengthAdjust="spacing" textLength="166.5" x="818.7913" y="89.4893">Current test project</text></g><!--entity sims--><g id="elem_sims"><rect fill="#87CEFA" height="32.4609" rx="5" ry="5" style="stroke:#0000FF;stroke-width:0.25;" width="99.5" x="309.7913" y="332.8159"/><rect fill="#87CEFA" height="5" style="stroke:#0000FF;stroke-width:0.25;" width="7.5" x="399.2913" y="335.3159"/><rect fill="#87CEFA" height="1" style="stroke:#0000FF;stroke-width:0.25;" width="2" x="398.2913" y="336.3159"/><rect fill="#87CEFA" height="1" style="stroke:#0000FF;stroke-width:0.25;" width="2" x="398.2913" y="338.3159"/><text fill="#333333" font-family="sans-serif" font-size="15" lengthAdjust="spacing" textLength="79.5" x="317.2913" y="356.7393">Simulators</text></g><!--entity rutu--><g id="elem_rutu"><rect fill="#87CEFA" height="49.9219" rx="5" ry="5" style="stroke:#0000FF;stroke-width:0.25;" width="125" x="138.0413" y="324.0659"/><rect fill="#87CEFA" height="5" style="stroke:#0000FF;stroke-width:0.25;" width="7.5" x="253.0413" y="326.5659"/><rect fill="#87CEFA" height="1" style="stroke:#0000FF;stroke-width:0.25;" width="2" x="252.0413" y="327.5659"/><rect fill="#87CEFA" height="1" style="stroke:#0000FF;stroke-width:0.25;" width="2" x="252.0413" y="329.5659"/><text fill="#333333" font-family="sans-serif" font-size="15" lengthAdjust="spacing" textLength="105" x="145.5413" y="347.9893">RU/TU service</text><text fill="#333333" font-family="sans-serif" font-size="15" lengthAdjust="spacing" textLength="71.5" x="162.2913" y="365.4502">instances</text></g><!--entity locdock--><g id="elem_locdock"><rect fill="#87CEFA" height="49.9219" rx="5" ry="5" style="stroke:#0000FF;stroke-width:0.25;" width="154" x="51.0413" y="173.8159"/><rect fill="#87CEFA" height="5" style="stroke:#0000FF;stroke-width:0.25;" width="7.5" x="195.0413" y="176.3159"/><rect fill="#87CEFA" height="1" style="stroke:#0000FF;stroke-width:0.25;" width="2" x="194.0413" y="177.3159"/><rect fill="#87CEFA" height="1" style="stroke:#0000FF;stroke-width:0.25;" width="2" x="194.0413" y="179.3159"/><text fill="#333333" font-family="sans-serif" font-size="15" lengthAdjust="spacing" textLength="106" x="72.5412" y="197.7393">locally started</text><text fill="#333333" font-family="sans-serif" font-size="15" lengthAdjust="spacing" textLength="134" x="58.5413" y="215.2002">docker containers</text></g><!--entity clddock--><g id="elem_clddock"><rect fill="#87CEFA" height="49.9219" rx="5" ry="5" style="stroke:#0000FF;stroke-width:0.25;" width="202" x="222.5413" y="173.8159"/><rect fill="#87CEFA" height="5" style="stroke:#0000FF;stroke-width:0.25;" width="7.5" x="414.5413" y="176.3159"/><rect fill="#87CEFA" height="1" style="stroke:#0000FF;stroke-width:0.25;" width="2" x="413.5413" y="177.3159"/><rect fill="#87CEFA" height="1" style="stroke:#0000FF;stroke-width:0.25;" width="2" x="413.5413" y="179.3159"/><text fill="#333333" font-family="sans-serif" font-size="15" lengthAdjust="spacing" textLength="112.5" x="264.7913" y="197.7393">helm charts on</text><text fill="#333333" font-family="sans-serif" font-size="15" lengthAdjust="spacing" textLength="182" x="230.0413" y="215.2002">local/remote kubernetes</text></g><!--entity tem--><g id="elem_tem"><rect fill="#90EE90" height="32.4609" rx="5" ry="5" style="stroke:#008000;stroke-width:0.25;" width="146" x="537.0413" y="182.5659"/><rect fill="#90EE90" height="5" style="stroke:#008000;stroke-width:0.25;" width="7.5" x="673.0413" y="185.0659"/><rect fill="#90EE90" height="1" style="stroke:#008000;stroke-width:0.25;" width="2" x="672.0413" y="186.0659"/><rect fill="#90EE90" height="1" style="stroke:#008000;stroke-width:0.25;" width="2" x="672.0413" y="188.0659"/><text fill="#008000" font-family="sans-serif" font-size="15" lengthAdjust="spacing" textLength="126" x="544.5413" y="206.4893">TigerTestEnvMgr</text></g><!--entity tp--><g id="elem_tp"><rect fill="#90EE90" height="32.4609" rx="5" ry="5" style="stroke:#008000;stroke-width:0.25;" width="99.5" x="624.2913" y="499.5659"/><rect fill="#90EE90" height="5" style="stroke:#008000;stroke-width:0.25;" width="7.5" x="713.7913" y="502.0659"/><rect fill="#90EE90" height="1" style="stroke:#008000;stroke-width:0.25;" width="2" x="712.7913" y="503.0659"/><rect fill="#90EE90" height="1" style="stroke:#008000;stroke-width:0.25;" width="2" x="712.7913" y="505.0659"/><text fill="#008000" font-family="sans-serif" font-size="15" lengthAdjust="spacing" textLength="79.5" x="631.7913" y="523.4893">TigerProxy</text></g><!--entity TigerTestLib--><g id="elem_TigerTestLib"><rect fill="#90EE90" height="158.6875" rx="5" ry="5" style="stroke:#008000;stroke-width:0.25;" width="231" x="1036.0413" y="119.5659"/><rect fill="#90EE90" height="5" style="stroke:#008000;stroke-width:0.25;" width="7.5" x="1257.0413" y="122.0659"/><rect fill="#90EE90" height="1" style="stroke:#008000;stroke-width:0.25;" width="2" x="1256.0413" y="123.0659"/><rect fill="#90EE90" height="1" style="stroke:#008000;stroke-width:0.25;" width="2" x="1256.0413" y="125.0659"/><text fill="#008000" font-family="sans-serif" font-size="15" lengthAdjust="spacing" textLength="91.5" x="1103.2913" y="143.4893">TigerTestLib</text><text fill="#008000" font-family="sans-serif" font-size="15" lengthAdjust="spacing" textLength="5" x="1146.5413" y="160.9502"> </text><line style="stroke:#008000;stroke-width:0.5;" x1="1036.5413" x2="1266.5413" y1="164.4878" y2="164.4878"/><text fill="#008000" font-family="sans-serif" font-size="15" lengthAdjust="spacing" textLength="211" x="1043.5413" y="180.4112">Validation &amp; Workflow steps</text><text fill="#008000" font-family="sans-serif" font-size="15" lengthAdjust="spacing" textLength="136.5" x="1080.7913" y="197.8721">TestContext steps</text><text fill="#008000" font-family="sans-serif" font-size="15" lengthAdjust="spacing" textLength="185.5" x="1056.2913" y="215.333">TigerGlobalConfiguration</text><text fill="#008000" font-family="sans-serif" font-size="15" lengthAdjust="spacing" textLength="92" x="1103.0413" y="232.794">JsonChecker</text><text fill="#008000" font-family="sans-serif" font-size="15" lengthAdjust="spacing" textLength="118" x="1090.0413" y="250.2549">PolarionToolbox</text><text fill="#008000" font-family="sans-serif" font-size="15" lengthAdjust="spacing" textLength="164" x="1067.0413" y="267.7158">SerenityIntegration ...</text></g><!--entity tex--><g id="elem_tex"><rect fill="#90EE90" height="158.6875" rx="5" ry="5" style="stroke:#008000;stroke-width:0.25;" width="196" x="920.0413" y="436.5659"/><rect fill="#90EE90" height="5" style="stroke:#008000;stroke-width:0.25;" width="7.5" x="1106.0413" y="439.0659"/><rect fill="#90EE90" height="1" style="stroke:#008000;stroke-width:0.25;" width="2" x="1105.0413" y="440.0659"/><rect fill="#90EE90" height="1" style="stroke:#008000;stroke-width:0.25;" width="2" x="1105.0413" y="442.0659"/><text fill="#008000" font-family="sans-serif" font-size="15" lengthAdjust="spacing" textLength="116" x="957.5413" y="460.4893">Tiger Extenions</text><text fill="#008000" font-family="sans-serif" font-size="15" lengthAdjust="spacing" textLength="5" x="1013.0413" y="477.9502"> </text><line style="stroke:#008000;stroke-width:0.5;" x1="920.5413" x2="1115.5413" y1="481.4878" y2="481.4878"/><text fill="#008000" font-family="sans-serif" font-size="15" lengthAdjust="spacing" textLength="92" x="969.5413" y="497.4112">Cloud, CATS</text><text fill="#008000" font-family="sans-serif" font-size="15" lengthAdjust="spacing" textLength="176" x="927.5413" y="514.8721">Konnektormanagement</text><text fill="#008000" font-family="sans-serif" font-size="15" lengthAdjust="spacing" textLength="143" x="944.0413" y="532.333">PSSim, HTTP Client</text><text fill="#008000" font-family="sans-serif" font-size="15" lengthAdjust="spacing" textLength="113" x="959.0413" y="549.794">FHIR validation</text><text fill="#008000" font-family="sans-serif" font-size="15" lengthAdjust="spacing" textLength="131" x="950.0413" y="567.2549">Zi0n mock server</text><text fill="#008000" font-family="sans-serif" font-size="15" lengthAdjust="spacing" textLength="163.5" x="933.7913" y="584.7158">KartenTerminal Robot</text></g><!--entity ihttp--><g id="elem_ihttp"><ellipse cx="772.5413" cy="349.0659" fill="#FFFFFF" rx="4" ry="4" style="stroke:#FF0000;stroke-width:1.0;"/><text fill="#FF0000" font-family="sans-serif" font-size="15" lengthAdjust="spacing" textLength="126.5" x="709.2913" y="371.4893">Local Http traffic</text></g><!--entity ipconf--><g id="elem_ipconf"><ellipse cx="612.5413" cy="349.0659" fill="#FFFFFF" rx="4" ry="4" style="stroke:#808080;stroke-width:0.25;"/><text fill="#006400" font-family="sans-serif" font-size="15" lengthAdjust="spacing" textLength="143" x="541.0413" y="371.4893">ProxyConfiguration</text></g><!--entity irbel--><g id="elem_irbel"><ellipse cx="920.0413" cy="349.0659" fill="#FFFFFF" rx="4" ry="4" style="stroke:#808080;stroke-width:0.25;"/><text fill="#006400" font-family="sans-serif" font-size="15" lengthAdjust="spacing" textLength="118" x="861.0413" y="371.4893">IRBelMessaging</text></g><!--entity tdir--><g id="elem_tdir"><rect fill="#FFFFFF" height="49.9219" rx="5" ry="5" style="stroke:#808080;stroke-width:0.25;" width="220.5" x="733.7913" y="173.8159"/><rect fill="#FFFFFF" height="5" style="stroke:#808080;stroke-width:0.25;" width="7.5" x="944.2913" y="176.3159"/><rect fill="#FFFFFF" height="1" style="stroke:#808080;stroke-width:0.25;" width="2" x="943.2913" y="177.3159"/><rect fill="#FFFFFF" height="1" style="stroke:#808080;stroke-width:0.25;" width="2" x="943.2913" y="179.3159"/><text fill="#8B0000" font-family="sans-serif" font-size="15" lengthAdjust="spacing" textLength="132" x="775.5413" y="197.7393">Current test suite</text><text fill="#8B0000" font-family="sans-serif" font-size="15" lengthAdjust="spacing" textLength="195.5" x="746.2913" y="215.2002">via TigerCucumberRunner</text></g><!--entity iroutes--><g id="elem_iroutes"><ellipse cx="256.5413" cy="515.8159" fill="#FFFFFF" rx="4" ry="4" style="stroke:#FF0000;stroke-width:1.0;"/><text fill="#FF0000" font-family="sans-serif" font-size="15" lengthAdjust="spacing" textLength="146.5" x="183.2913" y="538.2393">Routed HTTP traffic</text></g><!--link locdock to rutu--><!--link locdock to clddock--><!--link rutu to sims--><!--link ihttp to tp--><g id="link_ihttp_tp"><path d="M770.1063,353.6609 C758.1363,373.8009 705.2463,462.8059 683.4613,499.4609 " fill="none" id="ihttp-tp" style="stroke:#FF0000;stroke-width:1.0;"/></g><!--link tdir to ihttp--><g id="link_tdir_ihttp"><path d="M832.2363,223.9609 C815.3813,259.1409 785.3863,321.7509 775.6713,342.0309 " fill="none" id="tdir-to-ihttp" style="stroke:#FF0000;stroke-width:1.0;"/><polygon fill="#FF0000" points="774.4863,344.5009,778.2349,341.3076,775.5669,342.2466,774.628,339.5785,774.4863,344.5009" style="stroke:#FF0000;stroke-width:1.0;"/><text fill="#FF0000" font-family="sans-serif" font-size="6.5" lengthAdjust="spacing" textLength="34" x="798.0413" y="303.3494">test traffic</text></g><!--reverse link tdir to irbel--><g id="link_tdir_irbel"><path d="M857.8163,226.3709 C876.7563,263.5659 909.4663,327.7959 917.9712,344.5009 " fill="none" id="tdir-backto-irbel" style="stroke:#90EE90;stroke-width:1.0;"/><polygon fill="#90EE90" points="856.5913,223.9609,856.8525,228.8784,857.7264,226.1884,860.4164,227.0622,856.5913,223.9609" style="stroke:#90EE90;stroke-width:1.0;"/></g><!--reverse link irbel to tp--><g id="link_irbel_tp"><path d="M913.0863,354.2509 C881.5763,375.4809 751.3813,463.2059 697.5213,499.4959 " fill="none" id="irbel-backto-tp" style="stroke:#90EE90;stroke-width:1.0;"/><polygon fill="#90EE90" points="915.3462,352.7309,910.496,353.5822,913.2716,354.1259,912.728,356.9016,915.3462,352.7309" style="stroke:#90EE90;stroke-width:1.0;"/><text fill="#008000" font-family="sans-serif" font-size="6.5" lengthAdjust="spacing" textLength="41" x="852.7913" y="404.5994">return traffic</text><text fill="#008000" font-family="sans-serif" font-size="6.5" lengthAdjust="spacing" textLength="33" x="856.7913" y="412.1658">messages</text><text fill="#008000" font-family="sans-serif" font-size="6.5" lengthAdjust="spacing" textLength="51.5" x="847.5413" y="419.7322">from test traffic</text></g><!--reverse link tsys to iroutes--><g id="link_tsys_iroutes"><path d="M29.4284,215.7472 C29.1115,217.1701 28.7853,218.6729 28.4535,220.2506 C25.7989,232.8725 22.7803,250.2897 21.1869,269.9372 C18,309.2322 20.5137,357.4484 43.0413,394.0659 C94.4113,477.5709 225.8113,508.9009 251.9713,514.4009 " fill="none" id="tsys-backto-iroutes" style="stroke:#FF0000;stroke-width:1.0;"/><polygon fill="#FF0000" points="29.4284,215.7472,26.4979,219.7047,28.8849,218.1874,30.4022,220.5744,29.4284,215.7472" style="stroke:#FF0000;stroke-width:1.0;"/></g><!--reverse link iroutes to tp--><g id="link_iroutes_tp"><path d="M263.5963,515.8159 C305.6163,515.8159 524.4463,515.8159 624.2863,515.8159 " fill="none" id="iroutes-backto-tp" style="stroke:#FF0000;stroke-width:1.0;"/><polygon fill="#FF0000" points="261.0863,515.8159,265.5863,517.8159,263.5863,515.8159,265.5863,513.8159,261.0863,515.8159" style="stroke:#FF0000;stroke-width:1.0;"/><text fill="#FF0000" font-family="sans-serif" font-size="6.5" lengthAdjust="spacing" textLength="57" x="414.1663" y="512.3494">routed test traffic</text></g><!--link ipconf to tp--><g id="link_ipconf_tp"><path d="M614.0613,353.6609 C621.5363,373.8009 654.5563,462.8059 668.1563,499.4609 " fill="none" id="ipconf-tp" style="stroke:#90EE90;stroke-width:1.0;"/></g><!--link tem to ipconf--><g id="link_tem_ipconf"><path d="M610.3063,215.1459 C610.8462,247.3759 612.0513,319.4609 612.4263,341.8209 " fill="none" id="tem-to-ipconf" style="stroke:#90EE90;stroke-width:1.0;"/><polygon fill="#90EE90" points="612.4712,344.4109,614.3938,339.8773,612.4284,341.9113,610.3944,339.9459,612.4712,344.4109" style="stroke:#90EE90;stroke-width:1.0;"/><text fill="#008000" font-family="sans-serif" font-size="6.5" lengthAdjust="spacing" textLength="51" x="625.0413" y="299.5994">configure URLs,</text><text fill="#008000" font-family="sans-serif" font-size="6.5" lengthAdjust="spacing" textLength="79" x="612.0413" y="307.1658">URL mappings and certs</text></g><!--reverse link tem to tdir--><g id="link_tem_tdir"><path d="M685.7563,198.8159 C701.0363,198.8159 717.3913,198.8159 733.5763,198.8159 " fill="none" id="tem-backto-tdir" style="stroke:#90EE90;stroke-width:1.0;"/><polygon fill="#90EE90" points="683.1163,198.8159,687.6163,200.8159,685.6163,198.8159,687.6163,196.8159,683.1163,198.8159" style="stroke:#90EE90;stroke-width:1.0;"/><text fill="#008000" font-family="sans-serif" font-size="6.5" lengthAdjust="spacing" textLength="28.5" x="694.1663" y="187.8494">build me</text><text fill="#008000" font-family="sans-serif" font-size="6.5" lengthAdjust="spacing" textLength="32.5" x="692.1663" y="195.4158">a test env</text></g><!--link tem to clddock--><g id="link_tem_clddock"><path d="M536.9363,198.8159 C503.6013,198.8159 463.5313,198.8159 427.1613,198.8159 " fill="none" id="tem-to-clddock" style="stroke:#90EE90;stroke-width:1.0;"/><polygon fill="#90EE90" points="424.5513,198.8159,429.0513,200.8159,427.0513,198.8159,429.0513,196.8159,424.5513,198.8159" style="stroke:#90EE90;stroke-width:1.0;"/><text fill="#008000" font-family="sans-serif" font-size="6.5" lengthAdjust="spacing" textLength="94" x="433.7913" y="187.8494">creates helm chart instances</text><text fill="#008000" font-family="sans-serif" font-size="6.5" lengthAdjust="spacing" textLength="83.5" x="439.0413" y="195.4158">on local or remote cluster</text></g><!--reverse link locdock to tem--><g id="link_locdock_tem"><path d="M140.4862,171.2059 C154.2163,144.4909 179.1013,105.6259 214.0413,88.5659 C301.3063,45.9609 339.1563,61.9259 432.5413,88.5659 C497.2512,107.0259 561.3813,156.6209 591.7963,182.5359 " fill="none" id="locdock-backto-tem" style="stroke:#90EE90;stroke-width:1.0;"/><polygon fill="#90EE90" points="139.2713,173.5859,143.0964,170.4847,140.4064,171.3585,139.5325,168.6684,139.2713,173.5859" style="stroke:#90EE90;stroke-width:1.0;"/><text fill="#008000" font-family="sans-serif" font-size="6.5" lengthAdjust="spacing" textLength="60" x="309.0413" y="64.5994">creates containers</text></g><!--link tem to sims--><g id="link_tem_sims"><path d="M583.4712,215.1459 C536.0613,243.3959 437.2763,302.2509 388.3212,331.4209 " fill="none" id="tem-to-sims" style="stroke:#90EE90;stroke-width:1.0;"/><polygon fill="#90EE90" points="386.0263,332.7859,390.9154,332.1977,388.1731,331.505,388.8659,328.7627,386.0263,332.7859" style="stroke:#90EE90;stroke-width:1.0;"/><text fill="#008000" font-family="sans-serif" font-size="6.5" lengthAdjust="spacing" textLength="115" x="448.0413" y="303.3494">starts simulators from  e.g. jar files</text></g><!--link tdir to tex--><g id="link_tdir_tex"><path d="M888.0413,223.9209 C922.3563,245.6009 968.0763,280.4859 992.0413,324.0659 C1010.6913,357.9809 1017.8063,400.2209 1019.9963,436.3709 " fill="none" id="tdir-tex" style="stroke:#90EE90;stroke-width:1.0;"/><text fill="#008000" font-family="sans-serif" font-size="6.5" lengthAdjust="spacing" textLength="133.5" x="1015.0413" y="351.3494">use extensions for standard functionality</text></g><!--link tdir to TigerTestLib--><g id="link_tdir_TigerTestLib"><path d="M954.4063,198.8159 C980.8913,198.8159 1009.2463,198.8159 1035.9563,198.8159 " fill="none" id="tdir-TigerTestLib" style="stroke:#90EE90;stroke-width:1.0;"/><text fill="#008000" font-family="sans-serif" font-size="6.5" lengthAdjust="spacing" textLength="63.5" x="963.4163" y="195.3494">use generic helpers</text></g><!--SRC=[VLLBRoD54BxFhoXom9UC5t6q8ajWBIIGXSXnG09pQC_KZ7lJqptgxl76Glntggfx_2JuOhiUNxs-hlfAsyeCDK9lb8r3PwOXxWqMnLQJC4JqwEA-9y4433OHeWElsss4MdkiedQsAAAE1c6bM_HGkQvt5cqCx7BubxJFw7Ta0tTtl-1RNA915N0-Bmg6KhObb9iLXWXeTzexsv7d3QW0CUm3UIt9R3w7lmkWpn7xvbbtWr7H-I3MGNTi_MlSeYVq2-FbouVL2mHAHLUujje62brXSlL37DvtDQvInkofByf7hDUsTjMh56sZqXPpV39ZnViuMpGTL5i22U3isWhk1u-TYmYlmmQznPWpganz0VRFMRyMW_SC6hbllNUVIPLw9lEux9NCWNlyqUu-jLuCiIDqKLobAj8dxzxsOjd_lo7ZFkhDqGZ-53CuKnTPLfPb_lMRChfMJ2Ru6dvt_hKnxWkphm-ZFxakgCj4ctCvu_vet4OPKZUw7RpWPFLFmTd55db8MVBaZF9ai7BERDnRbX8nqUguVw08RKA0wNGgsh-AYr8fYVSgX8zlaO2S3TT5BemRwbjOVBTwpfAVdRNuIhJjb5KjCjl7B9-9qhTmlrezaPy-AdwuVrZ2xj2kBFr3VsEXOvO4UM4ZFhFKhj1tsYe3IxTnyRIa2GrKVcWgspUg8ZezCXNXFjAeerTDeoiXazv66Jvdb6T_uYG4EUj_SkhfOJHZg73fzR3y7iqd346rshR9ms_GNFRxdE9Xq96UBUoqIZrV3DNGqPDP3jHDVmD2LDfEb6rsJ6zcmakaE8c_T0CzujJairezAyAnsc8Y6wKS-lBaRRFoMz9EP6U8ylXMH-LeNjRkYot7zNAbbPNwN_ufC6_UA-SYpIGZdqv7gY_B-SNKO9Owc6ib0EwsP3wNZXKC9_-IPWOUu-3jwB6cXSpJmh2sZNVT1LnQqaJuwmvE3f8oXqiBVMmm1vOYvrU-d4KQr4NoGYugaqdCAqmAJi8PRsGX8yBByZ7SmjhIDtIgxubg0PIjeKBFHoerAmTdd1bi1crgw8XbAWMbSrIa6D9iCXmdHP4yAixtkDFXS5BMblQ8B7Tm7l9-ftlBT_Km_BjnWX9xX3kUb1GuCOGY2oDcwGJ9gSkN3sGYWDDs2f-LXqOR3BcwbBKihXaC0G5vJGNUKz1GPfnkhNmDpM3bfjE2YVlidBbvjk0JIekKdwwuz9uJBVu5]--></g></svg>