<?xml version="1.0" encoding="utf-8"?>
<!-- Generator: Adobe Illustrator 25.4.1, SVG Export Plug-In . SVG Version: 6.00 Build 0)  -->
<svg version="1.1" xmlns="http://www.w3.org/2000/svg" xmlns:xlink="http://www.w3.org/1999/xlink" x="0px" y="0px"
	 viewBox="0 0 504 504" style="enable-background:new 0 0 504 504;" xml:space="preserve">
<style type="text/css">
	.st0{fill:#000E52;}
	.st1{display:none;}
	.st2{display:inline;opacity:0.36;fill:#C00E52;}
</style>
<g id="Behoerden">
	<g>
		<path class="st0" d="M172.3,189.6c-18.4,0-23.7-5.3-24.2-7.5c-0.3-5.5-4.9-9.8-10.5-9.8c-5.8,0-10.5,4.7-10.5,10.5
			c0,1.1,0.5,27.8,45.2,27.8c5.8,0,10.5-4.7,10.5-10.5S178.1,189.6,172.3,189.6z"/>
		<path class="st0" d="M215.7,184.6c28.9,0,36.5-18.2,36.5-27.8c0-2.6-1-5.2-2.8-7.1c-1.1-1.2-11.7-12.1-33-12.1
			c-23.6,0-34.9,22.2-35.4,23.2c-0.6,1.2-1,2.5-1.1,3.8c-0.1,1.8,0,6.5,4.2,11C189.7,181.6,200,184.6,215.7,184.6z M216.4,158.5
			c5.2,0,9.2,1,12,2.1c-2.4,1.7-6.5,2.9-12.7,2.9c-4.4,0-7.6-0.3-10.1-0.6C208.4,160.6,212,158.5,216.4,158.5z"/>
		<path class="st0" d="M311.1,145.3l5.4-7.9c0.4,7.7,0.9,17.1,1.5,28.6c0.3,5.6,4.9,9.9,10.5,9.9c0.2,0,0.4,0,0.6,0
			c5.8-0.3,10.2-5.3,9.9-11.1c-2.7-48.4-2.7-59.6-2.7-59.7c0-4.6-3-8.7-7.4-10c-4.4-1.4-9.2,0.3-11.8,4.1l-23.3,34.2
			c-3.3,4.8-2,11.3,2.8,14.6C301.3,151.3,307.9,150.1,311.1,145.3z"/>
		<path class="st0" d="M311.2,185.6c-3.2-4.8-9.7-6.1-14.6-2.9c-4.8,3.2-6.1,9.7-2.9,14.6l50.6,76l-12-4.8c-4-1.6-8.7-0.6-11.6,2.6
			c-3,3.2-3.6,7.9-1.7,11.8l21.4,42.7c-21.2-5.1-46.4-4.1-75.2,3.1c-5.6,1.4-9,7.1-7.6,12.7c1.4,5.6,7.1,9,12.7,7.6
			c32.5-8.1,54.1-6,66.6-2.7c12.4,3.2,18.3,8.1,18.9,8.7c2,2.1,4.7,3.2,7.4,3.2c2.1,0,4.2-0.6,6.1-1.9c4.3-3,5.6-8.8,3.3-13.5
			l-22.3-44.7l17.7,7.1c4.3,1.7,9.2,0.4,12.1-3.1c2.9-3.6,3.1-8.6,0.6-12.4L311.2,185.6z"/>
		<path class="st0" d="M243,328.9c2.1,2,4.7,3.1,7.4,3.1s5.4-1,7.4-3.1c20.6-20.6,34.5-22.8,36.1-22.9c4.3,0.2,8-2.3,9.7-6.2
			c1.8-4,0.6-8.7-2.4-11.7c-7.8-7.8-28.9-33.8-23.5-50c0.9-2.8,0.7-5.8-0.8-8.4s-3.8-4.4-6.7-5.1c-29.9-7.5-45.6-29.9-45.9-30.4
			c-3.2-4.8-9.7-6.1-14.5-2.9c-4.8,3.2-6.1,9.7-2.9,14.6c0.7,1.1,16.9,24.9,48.9,36.2c-0.7,18,10.4,36.2,19.4,48
			c-10.6,5-21.4,13-32.3,23.9C238.9,318.2,238.9,324.8,243,328.9z"/>
		<path class="st0" d="M359.1,400.5c-1.9-1.1-3.2-2.9-3.6-5c-0.5-2.1-0.1-4.3,1.1-6.1l6.6-10c3.2-4.8,1.9-11.3-2.9-14.6
			c-4.8-3.2-11.3-1.9-14.6,2.9l-6.6,10c-4.4,6.6-5.9,14.6-4.2,22.4c1.8,7.8,6.5,14.3,13.3,18.4c4.6,2.7,7.7,7.1,8.9,12.3
			c1.2,5.2,0.2,10.5-2.8,15c-3.2,4.8-1.9,11.3,2.9,14.6c1.8,1.2,3.8,1.8,5.8,1.8c3.4,0,6.7-1.6,8.7-4.7c6.2-9.3,8.2-20.3,5.8-31.2
			C375.2,415.4,368.6,406.2,359.1,400.5z"/>
		<path class="st0" d="M404.1,391.2c-4.6-3.5-11.2-2.5-14.7,2.1c-3.5,4.6-2.5,11.2,2.1,14.7c0.1,0.1,8.2,6.2,16,15.1
			c9.5,10.7,14.5,20.6,14.5,28.5c0,5.8,4.7,10.5,10.5,10.5s10.5-4.7,10.5-10.5C443,421.2,408.1,394.2,404.1,391.2z"/>
		<path class="st0" d="M451,361c-11-27.5-22.8-39.9-31.5-45.5c1.2-4.6,2.5-10.6,3-17c1.4-16.5-2.3-29.9-10.7-39.4
			c7-13.6,7.9-32.7,7.3-47.5l15.1,13.6c2,1.8,4.5,2.7,7,2.7c2.9,0,5.7-1.2,7.8-3.5c3.9-4.3,3.5-10.9-0.8-14.8l-82.8-74.5
			c3.1-36.6-9.9-59.4-21.7-72.2c-13.6-14.8-28.7-20-29.4-20.2c-3.2-1.1-6.7-0.5-9.5,1.4c-2.7,2-4.4,5.1-4.4,8.5V54
			c0,26.9-21.9,48.8-48.8,48.8h-33c-15.6,0-30.5,4.8-43.1,13.8l-36.4,26c-4.4,3.2-9.2,5.8-14.3,7.8l-53,21.2
			c-9.1,3.6-16.3,11-19.8,20.2c-3.5,9.2-3,19.5,1.4,28.3l5.3,10.7c1.2,2.5,3.4,4.4,6.1,5.3c1.1,0.4,2.2,0.5,3.3,0.5
			c0.9,0,1.7-0.1,2.5-0.3l5.9,9.8c7.2,12,18.7,17.4,30.9,18.6c0,5.8,4.7,10.4,10.5,10.4c5.8,0,10.5-4.7,10.5-10.5v-1.4
			c1.3-0.3,2.5-0.6,3.8-1l2-0.5c0.5,5.3,5,9.5,10.4,9.5c5.8,0,10.5-4.7,10.5-10.5v-3.7l6.7-1.5v5.2c0,5.8,4.7,10.5,10.5,10.5
			s10.5-4.7,10.5-10.5v-8.6c4.6,1,8.9,3.6,11.8,7.7c0.1,0.1,0.2,0.3,0.3,0.4l12.3,15.5c1,1.4,2,2.7,2.9,3.9c5.4,7.1,5.3,7.3,3.8,9.8
			l-1.8,3c-5.1,8.6-16.2,11.8-25.1,7.3l-4.2-2.1c0-0.1,0-0.2,0-0.2v-8.7c0-5.8-4.7-10.5-10.5-10.5s-10.5,4.7-10.5,10.5v0.8
			c-2.3-0.3-4.6-0.4-6.9-0.3c-0.7-5.2-5.3-9.2-10.7-9c-5.8,0.2-10.4,5-10.2,10.8l0.1,3.6c-1.9,0.8-3.8,1.7-5.6,2.7
			c-1-4.5-4.9-7.9-9.7-8.1c-5.8-0.3-10.7,4.2-11,10l-0.5,10.7c-1.9,1.2-3.7,2.3-5.5,3.4c-0.1,0-0.1,0.1-0.2,0.1l-6.8,4.3
			c-4.6,2.9-6.3,8.8-3.8,13.7l28.5,55.4c0,0,0,0,0,0.1l0,0.1c0,0,0,0.1,0,0.1c0.2,0.4,0.4,0.7,0.6,1.1c0.1,0.1,0.1,0.2,0.2,0.2
			c0.3,0.4,0.5,0.7,0.8,1c0,0,0.1,0.1,0.1,0.1c0.3,0.3,0.6,0.5,0.8,0.8c0.1,0.1,0.2,0.2,0.4,0.3c0.1,0.1,0.2,0.2,0.3,0.2
			c0.2,0.1,0.4,0.2,0.6,0.4c0,0,0.1,0.1,0.1,0.1c0.4,0.2,0.8,0.4,1.1,0.6c0.1,0,0.1,0,0.2,0.1c0.4,0.2,0.8,0.3,1.2,0.4
			c0,0,0.1,0,0.1,0c0.4,0.1,0.8,0.2,1.3,0.3c0,0,0.1,0,0.1,0c0.4,0.1,0.9,0.1,1.3,0.1c0,0,0,0,0,0c0,0,0,0,0,0
			c1.1,0,2.2-0.2,3.3-0.5c0.1,0,0.2-0.1,0.4-0.1c0,0,0,0,0,0c0.4-0.1,0.8-0.3,1.1-0.5c0.3-0.2,0.6-0.4,1-0.6
			c0.1-0.1,0.2-0.2,0.3-0.2c0.2-0.1,0.4-0.3,0.6-0.5c0.1-0.1,0.2-0.2,0.3-0.3c0.2-0.2,0.4-0.4,0.6-0.6c0.1-0.1,0.2-0.2,0.2-0.3
			c0.2-0.3,0.4-0.5,0.6-0.8c0,0,0.1-0.1,0.1-0.1l0.1-0.1c0,0,0,0,0,0l3-4.3c9.9-4.1,21.3-3.8,31,1c16.6,8.3,35.7,8,51.8,0.1
			l23.7,13.6c19.1,10.9,34.1,28.2,42.3,48.6l3.3,8.3c1.6,4.1,5.6,6.6,9.8,6.6c1.3,0,2.6-0.2,3.9-0.8c5.4-2.2,8-8.3,5.8-13.6
			l-3.3-8.3c-9.9-24.8-28.2-45.8-51.4-59l-16-9.1l7.6-7.6c4.1-4.1,4.1-10.7,0-14.8c-4.1-4.1-10.7-4.1-14.8,0l-10.4,10.4
			c-11.3,11.3-28.6,14.1-42.9,7c-15.3-7.7-33.5-8.1-49.2-1.3l-17.6-34.3c2.2-1.3,4.4-2.7,6.6-4.1c15-9.5,32.1-20.2,43.8-14.3
			l13.1,6.5c18.7,9.3,41.8,2.6,52.5-15.3l1.8-3c8.9-14.8,0.8-25.4-5-33.2c-0.9-1.2-1.8-2.4-2.7-3.7c-0.1-0.1-0.2-0.3-0.3-0.4
			l-12.3-15.5c-10.7-14.7-29.7-20.4-46.7-14.1l-37.6,8.5c-0.2,0-0.4,0.1-0.6,0.2c-5.6,1.6-24.5,5.9-32.1-6.8l-4.9-8.2l17.9-8.9
			c5.2-2.6,7.3-8.9,4.7-14.1c-2.6-5.2-8.9-7.3-14.1-4.7L72.9,212l-0.6-1.3c-1.8-3.6-2-7.6-0.6-11.4c1.4-3.8,4.3-6.6,8-8.1l53-21.2
			c6.6-2.6,12.9-6.1,18.7-10.2l36.4-26c9.1-6.5,19.8-9.9,30.9-9.9h33c33.2,0,61.1-23.3,68.1-54.4c12.4,9.2,29.1,29.3,24.2,68.6
			c0,0.1,0,0.2,0,0.3c0,0.2,0,0.4,0,0.6c0,0.2,0,0.3,0,0.5c0,0.2,0,0.3,0,0.5c0,0.2,0,0.4,0.1,0.6c0,0.1,0,0.3,0.1,0.4
			c0,0.2,0.1,0.4,0.1,0.6c0,0.1,0.1,0.3,0.1,0.4c0,0.2,0.1,0.4,0.2,0.5c0,0.2,0.1,0.3,0.2,0.5c0.1,0.2,0.1,0.3,0.2,0.5
			c0.1,0.2,0.1,0.3,0.2,0.5c0.1,0.1,0.1,0.3,0.2,0.4c0.1,0.2,0.2,0.3,0.3,0.5c0.1,0.1,0.2,0.2,0.2,0.4c0.1,0.2,0.2,0.3,0.3,0.5
			c0.1,0.1,0.2,0.3,0.3,0.4c0.1,0.1,0.2,0.3,0.3,0.4c0.1,0.2,0.3,0.3,0.4,0.4c0.1,0.1,0.2,0.2,0.2,0.2l12.6,11.3
			c-15.4,45.9,11.9,73.8,13.1,75.1c2.1,2.1,4.8,3.1,7.5,3.1c2.7,0,5.4-1,7.4-3.1c4.1-4.1,4.1-10.7,0-14.8
			c-0.7-0.8-15.8-16.8-10.5-44.5l18.5,16.7c0,0.7,0,1.5,0.1,2.2c3.2,19.4,3.6,50.9-5.7,60.2c-2.2,2.2-3.3,5.3-3,8.5
			c0.3,3.1,2,6,4.6,7.7c18.3,12.2,4.9,47.7,4.7,48.1c-1.3,3.2-0.9,6.9,1.1,9.8c1.8,2.6,4.7,4.3,7.8,4.6c1.2,0.3,12.9,4.5,25.8,36.8
			c1.6,4.1,5.6,6.6,9.8,6.6c1.3,0,2.6-0.2,3.9-0.8C450.5,372.5,453.1,366.4,451,361z"/>
	</g>
</g>
<g id="Safety-Bereich" class="st1">
	<path class="st2" d="M0,0v504h504V0H0z M461.8,461.9H42.2V42.1h419.6V461.9z"/>
	<path class="st2" d="M-546.2,0v504h504V0H-546.2z M-84.4,461.9H-504V42.1h419.6V461.9z"/>
</g>
</svg>
