<?xml version="1.0" encoding="UTF-8" standalone="no"?>
<!-- Created with Inkscape (http://www.inkscape.org/) -->

<svg
   width="210mm"
   height="297mm"
   viewBox="0 0 210 297"
   version="1.1"
   id="svg5"
   inkscape:version="1.1.1 (26b7af14f2, 2022-01-19)"
   sodipodi:docname="title_white.inkscape.svg"
   xmlns:inkscape="http://www.inkscape.org/namespaces/inkscape"
   xmlns:sodipodi="http://sodipodi.sourceforge.net/DTD/sodipodi-0.dtd"
   xmlns="http://www.w3.org/2000/svg"
   xmlns:svg="http://www.w3.org/2000/svg">
  <sodipodi:namedview
     id="namedview7"
     pagecolor="#ffffff"
     bordercolor="#666666"
     borderopacity="1.0"
     inkscape:pageshadow="2"
     inkscape:pageopacity="0.0"
     inkscape:pagecheckerboard="0"
     inkscape:document-units="mm"
     showgrid="false"
     inkscape:zoom="1.8101934"
     inkscape:cx="556.57036"
     inkscape:cy="860.4053"
     inkscape:window-width="1708"
     inkscape:window-height="1376"
     inkscape:window-x="3640"
     inkscape:window-y="30"
     inkscape:window-maximized="0"
     inkscape:current-layer="layer1" />
  <defs
     id="defs2">
    <marker
       style="overflow:visible"
       id="Arrow1Lstart"
       refX="0.0"
       refY="0.0"
       orient="auto"
       inkscape:stockid="Arrow1Lstart"
       inkscape:isstock="true">
      <path
         transform="scale(0.8) translate(12.5,0)"
         style="fill-rule:evenodd;fill:context-stroke;stroke:context-stroke;stroke-width:1.0pt"
         d="M 0.0,0.0 L 5.0,-5.0 L -12.5,0.0 L 5.0,5.0 L 0.0,0.0 z "
         id="path82031" />
    </marker>
    <filter
       inkscape:collect="always"
       style="color-interpolation-filters:sRGB"
       id="filter32637"
       x="-0.011164434"
       y="-0.015632184"
       width="1.0223289"
       height="1.0312616">
      <feGaussianBlur
         inkscape:collect="always"
         stdDeviation="0.030141071"
         id="feGaussianBlur32639" />
    </filter>
    <filter
       inkscape:collect="always"
       style="color-interpolation-filters:sRGB"
       id="filter32633"
       x="-0.010547923"
       y="-0.038032635"
       width="1.0210958"
       height="1.0760512">
      <feGaussianBlur
         inkscape:collect="always"
         stdDeviation="0.030141071"
         id="feGaussianBlur32635" />
    </filter>
    <filter
       inkscape:collect="always"
       style="color-interpolation-filters:sRGB"
       id="filter32629"
       x="-0.0012603467"
       y="-0.0070872572"
       width="1.0025206"
       height="1.0141745">
      <feGaussianBlur
         inkscape:collect="always"
         stdDeviation="0.030141071"
         id="feGaussianBlur32631" />
    </filter>
    <filter
       inkscape:collect="always"
       style="color-interpolation-filters:sRGB"
       id="filter70036"
       x="-0.12586263"
       y="-28.565463"
       width="1.2517253"
       height="58.130926">
      <feGaussianBlur
         inkscape:collect="always"
         stdDeviation="0.01360482"
         id="feGaussianBlur70038" />
    </filter>
    <filter
       inkscape:collect="always"
       style="color-interpolation-filters:sRGB"
       id="filter70040"
       x="-0.084677266"
       y="-42.350704"
       width="1.1693545"
       height="85.701408">
      <feGaussianBlur
         inkscape:collect="always"
         stdDeviation="0.01360482"
         id="feGaussianBlur70042" />
    </filter>
    <filter
       inkscape:collect="always"
       style="color-interpolation-filters:sRGB"
       id="filter70044"
       x="-0.079343294"
       y="-45.016873"
       width="1.1586866"
       height="91.033746">
      <feGaussianBlur
         inkscape:collect="always"
         stdDeviation="0.01360482"
         id="feGaussianBlur70046" />
    </filter>
    <filter
       inkscape:collect="always"
       style="color-interpolation-filters:sRGB"
       id="filter94402"
       x="-0.048925317"
       y="-0.051378824"
       width="1.0978506"
       height="1.1027596">
      <feGaussianBlur
         inkscape:collect="always"
         stdDeviation="0.050748712"
         id="feGaussianBlur94404" />
    </filter>
    <filter
       inkscape:collect="always"
       style="color-interpolation-filters:sRGB"
       id="filter94406"
       x="-0.048925317"
       y="-0.051378824"
       width="1.0978506"
       height="1.1027596">
      <feGaussianBlur
         inkscape:collect="always"
         stdDeviation="0.050748715"
         id="feGaussianBlur94408" />
    </filter>
    <filter
       inkscape:collect="always"
       style="color-interpolation-filters:sRGB"
       id="filter94410"
       x="-0.048925317"
       y="-0.051378824"
       width="1.0978506"
       height="1.1027596">
      <feGaussianBlur
         inkscape:collect="always"
         stdDeviation="0.050748712"
         id="feGaussianBlur94412" />
    </filter>
    <filter
       inkscape:collect="always"
       style="color-interpolation-filters:sRGB"
       id="filter94414"
       x="-0.048925317"
       y="-0.051378824"
       width="1.0978506"
       height="1.1027596">
      <feGaussianBlur
         inkscape:collect="always"
         stdDeviation="0.050748714"
         id="feGaussianBlur94416" />
    </filter>
    <filter
       inkscape:collect="always"
       style="color-interpolation-filters:sRGB"
       id="filter94418"
       x="-0.048925317"
       y="-0.051378824"
       width="1.0978506"
       height="1.1027596">
      <feGaussianBlur
         inkscape:collect="always"
         stdDeviation="0.050748714"
         id="feGaussianBlur94420" />
    </filter>
    <filter
       inkscape:collect="always"
       style="color-interpolation-filters:sRGB"
       id="filter94422"
       x="-0.048925316"
       y="-0.051378824"
       width="1.0978506"
       height="1.1027596">
      <feGaussianBlur
         inkscape:collect="always"
         stdDeviation="0.050748711"
         id="feGaussianBlur94424" />
    </filter>
  </defs>
  <g
     inkscape:label="Layer 1"
     inkscape:groupmode="layer"
     id="layer1">
    <path
       sodipodi:type="star"
       style="fill:none;stroke:#000048;stroke-width:1.74614;stroke-linecap:round;stroke-linejoin:round;stroke-opacity:1;filter:url(#filter94422)"
       id="path83371-7-3"
       inkscape:flatsided="false"
       sodipodi:sides="5"
       sodipodi:cx="526.875"
       sodipodi:cy="1000.4883"
       sodipodi:r1="10.689429"
       sodipodi:r2="5.3447146"
       sodipodi:arg1="0.94629871"
       sodipodi:arg2="1.5746172"
       inkscape:rounded="0"
       inkscape:randomized="0"
       transform="matrix(0.0928911,0.03101649,-0.03101649,0.0928911,141.32238,148.41292)"
       inkscape:transform-center-x="-0.096292918"
       inkscape:transform-center-y="0.0038643566"
       d="m 533.125,1009.1602 -6.27042,-3.3272 -6.29567,3.2791 1.22669,-6.9916 -5.06416,-4.97425 7.02856,-0.99391 3.16584,-6.35341 3.1172,6.37742 7.02076,1.04758 -5.10202,4.93537 z" />
    <path
       sodipodi:type="star"
       style="fill:none;stroke:#000048;stroke-width:1.74614;stroke-linecap:round;stroke-linejoin:round;stroke-opacity:1;filter:url(#filter94402)"
       id="path83371-7-92"
       inkscape:flatsided="false"
       sodipodi:sides="5"
       sodipodi:cx="526.875"
       sodipodi:cy="1000.4883"
       sodipodi:r1="10.689429"
       sodipodi:r2="5.3447146"
       sodipodi:arg1="0.94629871"
       sodipodi:arg2="1.5746172"
       inkscape:rounded="0"
       inkscape:randomized="0"
       transform="matrix(0.09784635,0.00410737,-0.00410737,0.09784635,107.17788,156.91314)"
       inkscape:transform-center-x="-0.014812685"
       inkscape:transform-center-y="-0.08577777"
       d="m 533.125,1009.1602 -6.27042,-3.3272 -6.29567,3.2791 1.22669,-6.9916 -5.06416,-4.97425 7.02856,-0.99391 3.16584,-6.35341 3.1172,6.37742 7.02076,1.04758 -5.10202,4.93537 z" />
    <path
       sodipodi:type="star"
       style="fill:none;stroke:#000048;stroke-width:1.74614;stroke-linecap:round;stroke-linejoin:round;stroke-opacity:1;filter:url(#filter94418)"
       id="path83371-7-9"
       inkscape:flatsided="false"
       sodipodi:sides="5"
       sodipodi:cx="526.875"
       sodipodi:cy="1000.4883"
       sodipodi:r1="10.689429"
       sodipodi:r2="5.3447146"
       sodipodi:arg1="0.94629871"
       sodipodi:arg2="1.5746172"
       inkscape:rounded="0"
       inkscape:randomized="0"
       transform="matrix(0.05567509,0.08056713,-0.08056713,0.05567509,201.42867,159.36838)"
       inkscape:transform-center-x="0.091488156"
       inkscape:transform-center-y="-0.008870695"
       d="m 533.125,1009.1602 -6.27042,-3.3272 -6.29567,3.2791 1.22669,-6.9916 -5.06416,-4.97425 7.02856,-0.99391 3.16584,-6.35341 3.1172,6.37742 7.02076,1.04758 -5.10202,4.93537 z" />
    <path
       style="fill:none;stroke:#000048;stroke-width:0.265;stroke-linecap:round;stroke-linejoin:round;stroke-miterlimit:4;stroke-dasharray:none;stroke-opacity:1;filter:url(#filter32629)"
       d="m 47.380828,275.90088 99.715642,-0.0172 v -8.29999 l 3.90555,0.0182 0.0114,8.29583 1.03984,-0.003 0.006,-6.04998 2.856,-0.0172 -0.003,6.07293 1.21172,0.003 0.0143,-11.36951 5.70338,0.003 -0.006,2.64401 1.45521,-0.003 -0.0144,8.73412 2.79297,0.006 0.55001,-17.09584 c 0,0 -0.43996,-0.22565 -0.6159,-0.44115 -0.17594,-0.2155 -0.30706,-0.55535 -0.34374,-0.825 -0.0367,-0.26965 0.008,-0.5168 0.0917,-0.73333 0.084,-0.21653 0.24396,-0.41103 0.37813,-0.53425 0.13417,-0.12322 0.37813,-0.222 0.37813,-0.222 v -1.4896 l 0.40819,-0.48125 0.17489,-7.07995 0.4122,0.001 0.2193,7.1248 0.36666,0.50417 0.0458,1.44375 c 0,0 0.37254,0.21489 0.50702,0.39245 0.13448,0.17755 0.2263,0.40148 0.26069,0.64453 0.0344,0.24305 -0.009,0.54178 -0.0802,0.77344 -0.0713,0.23166 -0.16012,0.41837 -0.31225,0.57578 -0.15213,0.15741 -0.55,0.32084 -0.55,0.32084 l 0.64167,17.09868 2.49219,5e-5 -0.006,-0.83359 0.75911,-0.006 -2e-5,-0.86225 h -0.75615 l -0.002,-1.02417 0.82029,-0.0132 0.005,-1.16442 h -0.85029 l -0.003,-1.01091 0.7851,-0.006 0.003,-1.0208 -0.76595,0.006 0.006,-1.04272 0.76103,-0.31036 v -0.85074 l -0.78592,0.23498 v -1.09382 c 0,0 5.42675,-2.23246 8.14277,-3.34622 0.30825,-0.1264 0.64123,-0.16115 0.98038,-0.19446 0.33915,-0.0333 0.67743,-0.0346 1.04519,0 0.36776,0.0346 1.15052,0.21876 1.15052,0.21876 l 11.98325,3.09507 v 9.20416 h 15.54015 l -0.0243,-0.0324"
       id="path1594"
       sodipodi:nodetypes="ccccccccccccccccczzzzcccccccczzzzccccccccccccccccccccsszccccc" />
    <path
       style="fill:none;stroke:#000048;stroke-width:0.265;stroke-linecap:round;stroke-linejoin:round;stroke-miterlimit:4;stroke-dasharray:none;stroke-opacity:1;filter:url(#filter32637)"
       d="m 173.61218,275.07269 v -8.27862 l 3.13958,-1.17449 v 11.28072 l 1.82045,0.49271 V 264.8725 c 0,0 0.55177,-0.27907 0.845,-0.37289 0.25946,-0.083 0.57237,-0.1339 0.80036,-0.16536 0.22799,-0.0315 0.34823,-0.0332 0.56224,-0.0397 0.21401,-0.007 0.45999,-0.0147 0.72099,0.007 0.261,0.0217 0.56334,0.0708 0.84005,0.1323 0.57355,0.12753 1.69334,0.48946 1.69334,0.48946 v 8.96938 l 0.91942,-0.0926 v -8.58967 l 2.74972,0.59399 v 7.33388 l 0.76706,-0.0281 v -7.10001 l 3.48921,0.85124 v 5.78104"
       id="path8488"
       sodipodi:nodetypes="ccccccszzzscccccccccc" />
    <path
       style="fill:none;stroke:#000048;stroke-width:0.265;stroke-linecap:round;stroke-linejoin:round;stroke-miterlimit:4;stroke-dasharray:none;stroke-opacity:1;filter:url(#filter32633)"
       d="m 171.83821,265.9233 v -1.05704 c 0,0 5.0737,-2.73227 7.68935,-4.07854 0.20691,-0.1065 0.42823,-0.17328 0.66416,-0.21515 0.23593,-0.0419 0.4883,-0.0433 0.739,-0.0281 0.2507,0.0152 0.46572,0.0487 0.75771,0.12161 0.29199,0.0729 0.98221,0.33676 0.98221,0.33676 l 8.58737,3.20857 v 0.98221 l -1.44058,-0.42095 v -0.39288 l -1.4967,-0.52385 v 0.5145 l -1.82412,-0.47708 v -0.69223 l -2.08604,-0.64545 v 0.73899 l -1.65573,-0.40224 v -0.81383 c 0,0 -1.51296,-0.36476 -1.64639,-0.39289 -0.13343,-0.0281 -0.22725,-0.034 -0.34611,-0.0374 -0.11886,-0.003 -0.24664,-0.005 -0.36482,0.0187 -0.11818,0.0238 -0.22476,0.0688 -0.33676,0.12161 -0.112,0.0529 -1.57155,0.66416 -1.57155,0.66416 v 0.56127 l -1.21607,0.50514 v -0.5332 l -1.67445,0.739 v 0.68287 l -1.32833,0.54257 v -0.54257 l -1.44993,0.71095 v 0.39288 z"
       id="path9454"
       sodipodi:nodetypes="ccszzzccccccccccccczzzzccccccccccc" />
    <g
       style="fill:none"
       id="g69913"
       transform="matrix(0.26458333,0,0,0.26458333,155.30296,18.198769)">
      <path
         style="fill:#000c45;fill-opacity:1;stroke:#000000;stroke-width:1.91714;stroke-linecap:round;stroke-linejoin:round;stroke-miterlimit:4;stroke-dasharray:none;stroke-opacity:1;filter:url(#filter70036)"
         d="m 78.580906,881.10673 7.875424,0.0347"
         id="path196" />
      <path
         style="fill:#000c45;fill-opacity:1;stroke:#dd0b1a;stroke-width:1.92518;stroke-linecap:round;stroke-linejoin:round;stroke-miterlimit:4;stroke-dasharray:none;stroke-opacity:1;filter:url(#filter70040)"
         d="m 74.698964,883.8832 11.75335,0.0235"
         id="path196-6" />
      <path
         style="fill:#000c45;fill-opacity:1;stroke:#fec40e;stroke-width:2.05049;stroke-linecap:round;stroke-linejoin:round;stroke-miterlimit:4;stroke-dasharray:none;stroke-opacity:1;filter:url(#filter70044)"
         d="m 73.056503,886.65404 13.333156,0.0235"
         id="path196-6-7" />
      <path
         d="m 141.40568,883.07277 h -0.0577 v -6.03605 h -1.5306 v 10.48461 h 1.5306 v -3.02493 h 0.0443 l 3.04763,3.02493 h 2.07088 l -3.80717,-3.80484 3.77833,-3.38432 h -2.05742 z m -5.51275,4.44856 h 1.5306 v -7.18916 h -1.5306 z m 0.75954,-10.63467 c -0.6134,0 -1.06527,0.49363 -1.06527,1.1077 0,0.62986 0.45187,1.09387 1.06527,1.09387 0.61334,0 1.07867,-0.46401 1.07867,-1.09387 0,-0.6121 -0.4672,-1.1077 -1.07867,-1.1077 z m -5.29548,4.86912 h 2.68427 v -1.42361 h -2.68427 v -2.15616 h -1.53055 v 6.69551 c 0,1.9173 0.9326,2.79987 2.5093,2.79987 0.89029,0 1.59016,-0.32975 2.14394,-0.71872 l -0.59801,-1.25774 c -0.42303,0.27048 -0.93253,0.49361 -1.41518,0.49361 -0.6134,0 -1.10757,-0.38897 -1.10757,-1.34859 v -3.08417 z m -6.66444,4.68745 c -1.1518,0 -1.5306,-0.47981 -1.5306,-0.94378 0,-0.46402 0.32112,-0.89841 1.371,-1.00305 l 1.92474,-0.19547 v 1.88761 c -0.42303,0.15005 -1.0806,0.25469 -1.76514,0.25469 z m 0.14614,-6.26113 c -0.94797,0 -1.98435,0.2093 -2.96117,0.83917 l 0.56918,1.27355 c 0.62685,-0.37515 1.51708,-0.71872 2.33431,-0.71872 1.06521,0 1.67668,0.4186 1.67668,1.37818 v 0.12047 l -1.7363,0.1797 c -1.92473,0.19547 -3.09192,0.89835 -3.09192,2.23115 0,1.319 0.89029,2.18579 3.13615,2.18579 1.13829,0 2.44968,-0.28433 3.22261,-0.70492 v -4.10298 c 0,-1.76719 -1.15173,-2.66559 -3.14954,-2.68139 z m -7.67203,0 c -0.87491,0 -1.80943,0.27051 -2.50929,0.71872 -0.55379,-0.4798 -1.34217,-0.71872 -2.29009,-0.71872 -1.16713,0 -2.42084,0.47981 -3.07846,1.18273 v 6.1565 h 1.5306 l -0.0154,-5.33116 c 0.55379,-0.45018 1.13829,-0.53903 1.70553,-0.53903 0.96336,0 1.53055,0.58445 1.53055,1.60331 v 4.26688 h 1.5306 v -4.26887 c 0,-0.38897 -0.0442,-0.73452 -0.13076,-1.04847 0.43837,-0.32974 1.04984,-0.55483 1.67669,-0.55483 0.91908,0 1.53054,0.49362 1.53054,1.6033 v 4.26887 h 1.53061 v -4.26887 c 0.008,-2.03769 -1.14408,-3.07036 -3.01113,-3.07036 z m -14.6442,3.02494 c 0.19037,-1.00305 0.89024,-1.66253 1.94013,-1.66253 0.97676,0 1.60361,0.58445 1.77859,1.66253 z m 5.28004,0.60023 c 0,-2.20155 -1.35557,-3.62517 -3.31107,-3.62517 -2.05742,0 -3.57258,1.48285 -3.57258,3.68444 0,2.38121 1.57477,3.80485 3.67642,3.80485 1.04983,0 2.01319,-0.27048 2.87265,-1.00305 l -0.75755,-1.24394 c -0.58263,0.61408 -1.32678,0.89841 -2.02664,0.89841 -1.02105,0 -2.07088,-0.52324 -2.20163,-1.93303 h 5.29156 c 0.0135,-0.1777 0.0288,-0.38897 0.0288,-0.58251 z m -8.66423,-2.44244 c -0.903691,-0.94381 -2.245822,-1.18273 -3.120705,-1.18273 -2.522737,0 -4.010997,1.49865 -4.010997,3.75944 0,2.15615 1.415196,3.57979 3.441843,3.57979 0.582615,0 0.903724,-0.28433 0.903724,-0.76414 0,-0.45016 -0.321109,-0.70491 -0.903724,-0.70491 -1.122923,0 -1.91128,-0.82336 -1.91128,-2.11272 0,-1.392 0.861421,-2.29238 2.391984,-2.29238 0.49609,0 1.211378,0.13427 1.619012,0.53905 l -0.01538,5.24227 c 0,1.10775 -0.976794,1.61713 -2.188166,1.61713 -1.107542,0 -1.838216,-0.50938 -1.98435,-0.58444 -0.597996,-0.30011 -1.180609,-0.0158 -1.180609,0.56866 0,0.98925 1.749763,1.48285 3.180339,1.48285 2.128558,0 3.778309,-0.95762 3.778309,-3.08613 z"
         fill="#000c45"
         id="path63-3"
         style="fill:#ffffff;fill-opacity:1;stroke-width:0.567752" />
    </g>
    <path
       d="m 192.718,251.84091 h -0.0153 v -1.59795 h -0.4052 v 2.77563 h 0.4052 v -0.80079 h 0.0117 l 0.80681,0.80079 h 0.54824 l -1.0079,-1.00727 1.00026,-0.89594 h -0.54467 z m -1.45941,1.17768 h 0.4052 v -1.90321 h -0.4052 z m 0.20107,-2.81536 c -0.16238,0 -0.28201,0.13069 -0.28201,0.29325 0,0.16675 0.11963,0.28959 0.28201,0.28959 0.16238,0 0.28557,-0.12284 0.28557,-0.28959 0,-0.16204 -0.12369,-0.29325 -0.28557,-0.29325 z m -1.40189,1.28903 h 0.71062 v -0.37688 h -0.71062 v -0.5708 h -0.40519 v 1.77252 c 0,0.50758 0.24689,0.74122 0.6643,0.74122 0.23569,0 0.42096,-0.0873 0.56757,-0.19027 l -0.15831,-0.33297 c -0.11199,0.0716 -0.24688,0.13068 -0.37465,0.13068 -0.16239,0 -0.29321,-0.10297 -0.29321,-0.35701 v -0.81649 z m -1.76431,1.24092 c -0.30492,0 -0.4052,-0.12702 -0.4052,-0.24984 0,-0.12284 0.085,-0.23785 0.36295,-0.26554 l 0.50955,-0.0517 v 0.49972 c -0.11199,0.0397 -0.28608,0.0674 -0.4673,0.0674 z m 0.0387,-1.65752 c -0.25096,0 -0.52533,0.0554 -0.78392,0.22214 l 0.15067,0.33717 c 0.16596,-0.0993 0.40163,-0.19028 0.61798,-0.19028 0.282,0 0.44388,0.11082 0.44388,0.36486 v 0.0319 l -0.45966,0.0476 c -0.50955,0.0517 -0.81854,0.23782 -0.81854,0.59066 0,0.34919 0.23569,0.57866 0.83025,0.57866 0.30134,0 0.64851,-0.0753 0.85313,-0.18662 v -1.0862 c 0,-0.46784 -0.3049,-0.70567 -0.83379,-0.70985 z m -2.03105,0 c -0.23162,0 -0.47902,0.0716 -0.6643,0.19026 -0.1466,-0.12702 -0.35531,-0.19026 -0.60626,-0.19026 -0.30898,0 -0.64088,0.12702 -0.81497,0.31311 v 1.62982 h 0.4052 l -0.004,-1.41133 c 0.1466,-0.11918 0.30134,-0.1427 0.45151,-0.1427 0.25503,0 0.40519,0.15471 0.40519,0.42445 v 1.12958 h 0.4052 v -1.1301 c 0,-0.10298 -0.0117,-0.19446 -0.0346,-0.27758 0.11605,-0.0873 0.27793,-0.14688 0.44388,-0.14688 0.24331,0 0.40519,0.13068 0.40519,0.42446 v 1.1301 h 0.4052 v -1.1301 c 0.002,-0.53946 -0.30288,-0.81283 -0.79715,-0.81283 z m -3.87681,0.8008 c 0.0504,-0.26555 0.23567,-0.44013 0.51361,-0.44013 0.25858,0 0.42453,0.15473 0.47086,0.44013 z m 1.3978,0.1589 c 0,-0.58283 -0.35886,-0.9597 -0.87656,-0.9597 -0.54467,0 -0.94577,0.39255 -0.94577,0.97539 0,0.63039 0.41689,1.00727 0.97327,1.00727 0.27792,0 0.53296,-0.0716 0.76049,-0.26554 l -0.20056,-0.32932 c -0.15424,0.16257 -0.35124,0.23784 -0.53652,0.23784 -0.2703,0 -0.54823,-0.13851 -0.58285,-0.51173 h 1.40086 c 0.003,-0.047 0.008,-0.10297 0.008,-0.15421 z m -2.29372,-0.64659 c -0.23924,-0.24987 -0.59454,-0.31311 -0.82615,-0.31311 -0.66786,0 -1.06185,0.39674 -1.06185,0.99525 0,0.5708 0.37465,0.94768 0.91117,0.94768 0.15424,0 0.23924,-0.0753 0.23924,-0.20229 0,-0.11917 -0.085,-0.18661 -0.23924,-0.18661 -0.29728,0 -0.50598,-0.21798 -0.50598,-0.55932 0,-0.36849 0.22805,-0.60686 0.63324,-0.60686 0.13133,0 0.32069,0.0356 0.42861,0.14271 l -0.004,1.3878 c 0,0.29326 -0.2586,0.42811 -0.57929,0.42811 -0.29321,0 -0.48664,-0.13485 -0.52532,-0.15472 -0.15831,-0.0795 -0.31255,-0.004 -0.31255,0.15055 0,0.26188 0.46322,0.39255 0.84194,0.39255 0.5635,0 1.00025,-0.25351 1.00025,-0.817 z"
       style="fill:#000e4f;fill-opacity:1;stroke:none;stroke-width:0.0701913;stroke-miterlimit:4;stroke-dasharray:none"
       id="path82451" />
    <path
       sodipodi:type="star"
       style="fill:none;stroke:#000048;stroke-width:1.74614;stroke-linecap:round;stroke-linejoin:round;stroke-opacity:1;filter:url(#filter94406)"
       id="path83371"
       inkscape:flatsided="false"
       sodipodi:sides="5"
       sodipodi:cx="526.875"
       sodipodi:cy="1000.4883"
       sodipodi:r1="10.689429"
       sodipodi:r2="5.3447146"
       sodipodi:arg1="0.94629871"
       sodipodi:arg2="1.5746172"
       inkscape:rounded="0"
       inkscape:randomized="0"
       d="m 533.125,1009.1602 -6.27042,-3.3272 -6.29567,3.2791 1.22669,-6.9916 -5.06416,-4.97425 7.02856,-0.99391 3.16584,-6.35341 3.1172,6.37742 7.02076,1.04758 -5.10202,4.93537 z"
       transform="matrix(0.09557155,0.0213742,-0.0213742,0.09557155,111.24505,158.92735)"
       inkscape:transform-center-x="-0.071813296"
       inkscape:transform-center-y="-0.029171315" />
    <path
       sodipodi:type="star"
       style="fill:none;stroke:#000048;stroke-width:1.74614;stroke-linecap:round;stroke-linejoin:round;stroke-opacity:1;filter:url(#filter94410)"
       id="path83371-7"
       inkscape:flatsided="false"
       sodipodi:sides="5"
       sodipodi:cx="526.875"
       sodipodi:cy="1000.4883"
       sodipodi:r1="10.689429"
       sodipodi:r2="5.3447146"
       sodipodi:arg1="0.94629871"
       sodipodi:arg2="1.5746172"
       inkscape:rounded="0"
       inkscape:randomized="0"
       transform="matrix(0.08954497,0.03965447,-0.03965447,0.08954497,135.18839,151.51087)"
       inkscape:transform-center-x="-0.066682659"
       inkscape:transform-center-y="0.034411677"
       d="m 533.125,1009.1602 -6.27042,-3.3272 -6.29567,3.2791 1.22669,-6.9916 -5.06416,-4.97425 7.02856,-0.99391 3.16584,-6.35341 3.1172,6.37742 7.02076,1.04758 -5.10202,4.93537 z" />
    <path
       sodipodi:type="star"
       style="fill:none;stroke:#000048;stroke-width:1.74614;stroke-linecap:round;stroke-linejoin:round;stroke-opacity:1;filter:url(#filter94414)"
       id="path83371-7-4"
       inkscape:flatsided="false"
       sodipodi:sides="5"
       sodipodi:cx="526.875"
       sodipodi:cy="1000.4883"
       sodipodi:r1="10.689429"
       sodipodi:r2="5.3447146"
       sodipodi:arg1="0.94629871"
       sodipodi:arg2="1.5746172"
       inkscape:rounded="0"
       inkscape:randomized="0"
       transform="matrix(0.07311123,0.0651577,-0.0651577,0.07311123,172.68499,151.83671)"
       inkscape:transform-center-x="0.033398703"
       inkscape:transform-center-y="0.067671303"
       d="m 533.125,1009.1602 -6.27042,-3.3272 -6.29567,3.2791 1.22669,-6.9916 -5.06416,-4.97425 7.02856,-0.99391 3.16584,-6.35341 3.1172,6.37742 7.02076,1.04758 -5.10202,4.93537 z" />
  </g>
</svg>
